<svg width="94" height="95" viewBox="0 0 94 95" fill="none" xmlns="http://www.w3.org/2000/svg">
<path d="M6.76636 10.1131L57.2274 0V78.8819L6.76636 88.995V10.1131Z" fill="#EBEBEB"/>
<path d="M78.1001 83.9281L27.639 94.0411V15.1592L78.1001 5.04611V83.9281ZM32.2263 18.9184V88.4431L73.5127 80.1686V10.6439L32.2263 18.9184Z" fill="#0047AB"/>
<path d="M93.3265 61.012V56.4247C84.8707 58.0683 78.1 52.4234 78.1 43.8094L73.5129 44.679C73.5129 53.293 66.6582 61.6085 58.2024 63.2521L0 74.5655V79.1529L58.2024 67.8395C66.6582 66.1958 73.5129 71.1584 73.5129 79.7724L78.1 78.9028C78.1 70.2888 84.8707 62.6557 93.3265 61.012Z" fill="#0047AB"/>
</svg>
