<svg version="1.1" xmlns="http://www.w3.org/2000/svg" style="display: block;" viewBox="0 0 2048 2048" width="1024" height="1024" preserveAspectRatio="none">
<path transform="translate(0,0)" fill="rgb(255,255,255)" d="M 0 0 L 2048 0 L 2048 2048 L 0 2048 L 0 0 z"/>
<path transform="translate(0,0)" fill="rgb(0,0,0)" d="M 1126.96 614.502 C 1160.96 614.269 1194.97 614.305 1228.97 614.609 L 1228.97 648.405 L 1262.93 648.56 L 1262.95 682.7 L 1297.02 682.783 L 1297.01 716.654 L 1331.05 716.781 L 1331.1 750.597 L 1365.28 750.893 L 1365.51 784.86 L 1399.03 785.009 L 1399.09 818.943 L 1433.38 819.078 C 1434.09 852.568 1433.57 887.742 1433.59 921.36 C 1400.87 922.512 1363.93 921.78 1331.06 921.822 L 1331.13 1024 L 1228.97 1024.03 L 1228.97 1126.25 C 1194.96 1126.78 1160.59 1126.24 1126.43 1126.7 L 1126.37 1228.97 L 1024.03 1228.97 L 1024.03 1331.17 L 921.693 1331.44 L 921.519 1433.35 C 888.924 1434.48 852.04 1433.68 819.043 1433.81 L 819.05 1535.99 L 716.892 1536.02 L 716.901 1638.45 C 683.246 1639.05 648.408 1638.49 614.515 1638.76 L 614.595 1740.86 C 592.357 1741.6 566.475 1740.96 544.012 1740.95 L 409.443 1740.9 C 408.857 1707.41 409.404 1672.31 409.411 1638.7 C 377.438 1637.45 339.399 1638.46 307.19 1638.57 C 307.174 1570.64 306.449 1501.36 307.375 1433.54 C 340.438 1432.66 376.013 1433.3 409.322 1433.25 C 409.865 1399.29 409.137 1365.2 409.796 1331.09 L 511.982 1330.98 L 512.12 1228.94 L 614.268 1228.68 C 614.078 1194.61 614.115 1160.55 614.381 1126.49 L 716.851 1126.31 L 716.982 1024.09 L 819.053 1023.92 L 819.147 921.596 C 851.733 920.493 888.539 921.258 921.341 921.228 C 921.345 887.493 920.953 852.749 921.747 819.1 L 1023.97 819.001 L 1024.06 716.907 L 1126.48 716.698 C 1126.77 686.041 1125.09 644.342 1126.96 614.502 z"/>
<path transform="translate(0,0)" fill="rgb(255,255,255)" d="M 1160.91 750.991 C 1171.98 750.833 1183.5 751.017 1194.6 751.046 C 1194.74 762.391 1194.74 773.737 1194.59 785.082 L 1228.82 785.204 L 1228.9 819.315 C 1251.57 819.133 1274.24 819.221 1296.9 819.58 L 1296.83 921.2 L 1194.74 921.46 C 1194.61 944.175 1194.6 966.892 1194.71 989.608 L 1160.86 989.83 L 1160.67 1023.89 L 1126.51 1023.95 C 1126.14 1013.16 1126.4 1000.68 1126.39 989.763 L 1058.04 989.617 L 1058.05 955.902 L 1024.07 955.777 L 1024.04 921.845 L 1058.19 921.616 L 1058.04 853.43 C 1079.8 852.775 1104.6 853.296 1126.59 853.268 L 1126.69 819.377 L 1160.92 819.193 L 1160.91 750.991 z"/>
<path transform="translate(0,0)" fill="rgb(0,0,0)" d="M 1143.37 307.018 L 1280 307.003 L 1280.06 443.993 L 1143.25 444.014 L 1143.37 307.018 z"/>
<path transform="translate(0,0)" fill="rgb(0,0,0)" d="M 1604.27 307.04 L 1740.93 307.036 L 1740.85 443.882 C 1695.75 444.487 1649.46 444.004 1604.27 444.019 C 1603.46 399.566 1603.85 351.593 1604.27 307.04 z"/>
<path transform="translate(0,0)" fill="rgb(0,0,0)" d="M 1399.3 512.129 C 1444.26 511.407 1490.97 512.001 1536.06 511.989 C 1536.08 556.22 1537.01 604.654 1535.86 648.548 L 1399.14 648.574 C 1399.11 603.208 1398.78 557.465 1399.3 512.129 z"/>
<path transform="translate(0,0)" fill="rgb(0,0,0)" d="M 1399.29 1024.08 C 1444.44 1023.5 1490.79 1024 1536.03 1023.99 L 1536.06 1115.79 C 1536.07 1124.32 1536.67 1152.38 1535.63 1159.76 L 1533.76 1160.52 L 1399.05 1160.53 L 1399.29 1024.08 z"/>
<path transform="translate(0,0)" fill="rgb(0,0,0)" d="M 1604.31 716.972 C 1649.34 716.315 1695.82 716.782 1740.89 716.913 L 1740.93 853.103 C 1695.8 853.735 1649.45 853.287 1604.23 853.299 C 1603.54 809.008 1603.74 761.294 1604.31 716.972 z"/>
<path transform="translate(0,0)" fill="rgb(0,0,0)" d="M 853.12 546.242 L 989.719 546.208 C 990.601 590.727 989.896 637.999 989.883 682.685 L 852.956 682.668 L 853.12 546.242 z"/>
</svg>