<svg version="1.1" xmlns="http://www.w3.org/2000/svg" style="display: block;" viewBox="0 0 2048 2048" width="1024" height="1024" preserveAspectRatio="none">
<path transform="translate(0,0)" fill="rgb(0,0,0)" d="M 0 0 L 2048 0 L 2048 1126.43 L 2048 1536.06 L 2048 2048 L 1536.06 2048 L 1126.46 2048 L 0 2048 L 0 0 z"/>
<path transform="translate(0,0)" fill="rgb(255,255,255)" d="M 0 0 L 2048 0 L 2048 1126.43 L 1996.83 1126.34 L 1996.97 1023.97 L 1945.95 1023.98 L 1945.66 921.339 L 1894.59 921.155 L 1894.46 870.6 C 1877.64 870.214 1860.02 870.412 1843.14 870.348 L 1843.06 818.94 L 1792.05 818.761 L 1792.1 767.953 L 1740.93 767.952 L 1740.9 716.869 C 1706.99 716.411 1672.41 716.704 1638.47 716.679 L 1638.56 665.454 C 1605.59 664.54 1569.28 665.311 1536.03 665.398 L 1535.98 716.607 C 1519.16 716.886 1501.86 716.693 1484.98 716.78 L 1485.01 409.387 L 1434.05 409.333 L 1433.86 306.984 L 1382.71 306.878 L 1382.43 255.99 L 1331.15 255.949 L 1331.08 204.862 C 1314.59 204.828 1296.36 205.185 1280.02 204.664 L 1280.02 153.411 L 1177.87 153.337 C 1177.82 136.511 1177.99 119.226 1177.71 102.442 L 819.387 102.367 C 819.189 119.324 819.105 136.283 819.134 153.241 C 785.494 153.273 750.489 152.807 716.96 153.517 L 716.81 204.57 L 665.56 204.909 C 665.177 221.908 665.052 238.912 665.187 255.914 L 614.658 256.019 L 614.313 306.895 L 563.283 307.041 L 563.041 409.263 L 512.113 409.373 L 512.054 716.873 L 563.057 716.944 L 563.122 819.092 L 614.247 819.207 L 614.258 870.364 L 512.091 870.529 L 511.962 921.159 C 478.782 921.254 442.399 920.496 409.605 921.528 C 409.137 955.614 409.871 989.948 409.341 1023.9 L 307.327 1024.05 L 307.107 1126.37 L 204.969 1126.38 L 204.783 1228.57 C 170.728 1229.04 136.45 1228.41 102.555 1228.96 L 102.376 1433.6 L 307.092 1433.49 L 307.115 1331.27 L 358.556 1331.12 C 358.545 1314.76 358.107 1296.21 358.683 1280.03 L 409.93 1280.01 L 409.877 1228.98 L 460.787 1228.91 L 460.831 1177.57 L 512.146 1177.26 L 512.058 1126.45 L 563.113 1126.46 L 563.066 1075.22 L 614.395 1075.15 L 614.526 972.832 C 631.582 972.821 649.004 973.004 666.027 972.772 L 665.887 921.748 C 682.894 921.458 699.904 921.487 716.91 921.836 L 716.874 972.851 C 750.492 972.853 785.683 972.298 819.163 972.915 L 819.149 1023.97 L 716.977 1024.02 L 716.839 1126.32 L 614.556 1126.4 C 613.595 1186.3 614.318 1248.17 614.313 1308.2 L 614.337 1536.03 L 665.519 1536.03 L 665.679 1638.39 C 682.396 1638.4 699.984 1638.14 716.63 1638.53 L 716.843 1740.91 L 819.234 1740.89 L 819.124 1843.11 C 853.282 1843.29 887.441 1843.26 921.599 1843.02 C 920.82 1876.68 921.362 1911.86 921.416 1945.63 C 955.08 1945.63 990.497 1945.04 1024 1945.66 L 1023.97 1996.95 L 1126.39 1997.01 C 1126.54 2014.01 1126.57 2031 1126.46 2048 L 0 2048 L 0 0 z"/>
<path transform="translate(0,0)" fill="rgb(255,255,255)" d="M 2048 1536.06 L 2048 2048 L 1536.06 2048 L 1536.03 1996.97 L 1638.68 1996.98 L 1638.72 1945.75 C 1672.06 1944.99 1707.17 1945.77 1740.81 1945.4 L 1740.83 1843.01 C 1739.99 1810.27 1740.84 1773.87 1740.89 1740.84 L 1843.04 1740.86 C 1876.25 1741.68 1912.35 1740.95 1945.79 1740.93 L 1945.67 1638.61 C 1961.71 1637.96 1980.66 1638.44 1996.92 1638.45 L 1996.91 1536.05 L 2048 1536.06 z"/>
<path transform="translate(0,0)" fill="rgb(0,0,0)" d="M 1740.89 1740.84 L 1843.04 1740.86 L 1843.05 1843.12 C 1808.97 1843.35 1774.9 1843.32 1740.83 1843.01 C 1739.99 1810.27 1740.84 1773.87 1740.89 1740.84 z"/>
<path transform="translate(0,0)" fill="rgb(255,255,255)" d="M 1177.67 972.864 L 1228.83 972.844 L 1228.85 1024.05 L 1331.09 1024.03 L 1331.06 1152 L 1331.05 1305.23 L 1024.1 1305.31 L 1024 1126.43 L 1075.17 1126.45 L 1075.06 1024 L 1177.83 1023.97 L 1177.67 972.864 z"/>
<path transform="translate(0,0)" fill="rgb(0,0,0)" d="M 1126.66 1126.41 L 1228.95 1126.42 L 1229.01 1192.52 C 1229.01 1203.61 1229.46 1218.15 1228.63 1228.87 L 1126.42 1228.95 C 1126.61 1195.08 1125.82 1160.06 1126.66 1126.41 z"/>
<path transform="translate(0,0)" fill="rgb(255,255,255)" d="M 819.149 1023.97 L 1024 1024.03 L 1024 1126.43 C 1007.21 1126.15 989.722 1126.39 972.876 1126.38 L 972.694 1305.14 C 888.065 1306.08 801.681 1305.37 716.943 1305.21 L 716.924 1177.65 C 733.273 1177.09 751.661 1177.43 768.169 1177.37 L 768.074 1126.52 C 785.018 1126.3 802.346 1126.49 819.322 1126.49 L 819.149 1023.97 z"/>
<path transform="translate(0,0)" fill="rgb(255,255,255)" d="M 1126.73 1689.76 C 1193.93 1689.66 1264.13 1688.72 1331.14 1689.76 L 1331.04 1843.27 L 1331.02 1945.22 L 1228.92 1945.27 L 1228.86 1843.01 L 1177.88 1842.91 L 1177.76 1791.93 L 1126.56 1792.01 C 1126.54 1758.65 1126.05 1723.02 1126.73 1689.76 z"/>
<path transform="translate(0,0)" fill="rgb(255,255,255)" d="M 1382.64 1689.81 L 1587.16 1689.83 L 1587.06 1791.97 L 1536.08 1792.02 L 1536 1843.12 C 1520.52 1842.37 1500.55 1842.97 1484.74 1843 L 1484.71 1894.32 L 1433.72 1894.5 L 1433.39 1945.26 C 1416.43 1945.34 1399.47 1945.34 1382.51 1945.25 C 1382.28 1934.9 1382.37 1924.18 1382.44 1913.8 C 1382.89 1839.19 1381.69 1764.41 1382.64 1689.81 z"/>
<path transform="translate(0,0)" fill="rgb(255,255,255)" d="M 1433.95 716.937 C 1450.96 717.036 1467.97 716.984 1484.98 716.78 L 1484.81 819.133 C 1501.53 819.158 1519.38 818.856 1536 819.252 L 1535.98 870.483 C 1552.33 870.498 1571 870.069 1587.15 870.661 L 1587.13 972.668 L 1382.52 972.73 C 1382.43 955.599 1382.43 938.468 1382.52 921.338 C 1365.4 921.22 1348.28 921.221 1331.16 921.342 L 1331.09 870.736 C 1347.78 870.27 1365.61 870.589 1382.38 870.614 L 1382.55 819.35 C 1399.05 818.847 1417.24 819.172 1433.87 819.122 L 1433.95 716.937 z"/>
<path transform="translate(0,0)" fill="rgb(255,255,255)" d="M 819.321 1689.86 C 887.07 1689.02 956.101 1689.72 1023.98 1689.72 L 1023.97 1740.94 L 1075.12 1741 L 1075.09 1792.04 L 1126.56 1792.01 C 1126.64 1826.1 1126.54 1860.2 1126.27 1894.29 L 1024.06 1894.28 L 1024.05 1843 C 990.141 1843 955.432 1842.59 921.599 1843.02 C 922.537 1810.41 921.744 1773.83 921.778 1740.9 C 887.879 1740.49 853.342 1740.82 819.392 1740.8 L 819.321 1689.86 z"/>
<path transform="translate(0,0)" fill="rgb(255,255,255)" d="M 1638.78 1689.79 L 1843.2 1689.82 L 1843.04 1740.86 L 1740.89 1740.84 C 1740.84 1773.87 1739.99 1810.27 1740.83 1843.01 C 1708.04 1842.13 1671.38 1842.95 1638.27 1842.95 C 1638.37 1860.07 1638.36 1877.2 1638.25 1894.32 L 1536.06 1894.26 L 1536 1843.12 L 1536.08 1792.02 L 1587.06 1791.97 L 1638.64 1791.99 L 1638.78 1689.79 z"/>
<path transform="translate(0,0)" fill="rgb(0,0,0)" d="M 1536.08 1792.02 L 1587.06 1791.97 L 1587.05 1843.17 C 1570.55 1843.21 1552.36 1843.62 1536 1843.12 L 1536.08 1792.02 z"/>
<path transform="translate(0,0)" fill="rgb(255,255,255)" d="M 1331.16 921.342 L 1331.14 972.688 C 1297.1 972.839 1263.06 972.786 1229.02 972.531 C 1228.63 956.025 1228.93 938.322 1228.91 921.72 C 1262.25 920.985 1297.65 921.502 1331.16 921.342 z"/>
<path transform="translate(0,0)" fill="rgb(255,255,255)" d="M 819.307 205.008 L 1177.4 205.001 L 1177.3 256.038 L 1228.83 256.036 L 1228.87 307.186 C 1245.75 307.213 1263.2 307.004 1280.03 307.302 L 1280 358.511 C 1296.3 358.465 1315.12 357.954 1331.22 358.526 L 1331.12 409.576 C 1347.65 409.594 1366.13 409.208 1382.5 409.783 L 1382.31 665.141 L 1331.17 665.463 L 1331.04 767.899 L 1280.04 767.999 L 1279.97 818.784 C 1262.92 818.732 1245.88 818.792 1228.83 818.966 C 1228.42 835.443 1228.82 853.72 1228.82 870.347 L 1126.56 870.397 C 1125.89 886.416 1126.32 904.918 1126.32 921.123 C 1041.82 922.12 955.239 921.391 870.61 921.183 L 870.318 870.475 C 836.803 869.832 801.7 870.313 768.055 870.258 L 768.059 818.962 L 716.968 818.806 L 716.891 767.985 L 666.121 767.98 L 665.944 716.882 L 614.526 716.684 L 614.684 409.658 C 631.441 409.285 649.118 409.53 665.974 409.433 L 665.926 358.657 C 681.967 358.028 700.659 358.435 716.904 358.393 L 716.944 307.357 L 768.041 307.029 L 768.081 256.033 L 819.278 256.039 C 819.277 239.233 819.021 221.757 819.307 205.008 z"/>
<path transform="translate(0,0)" fill="rgb(0,0,0)" d="M 1126.41 665.434 C 1176.35 665.193 1230.34 664.334 1280.03 665.463 L 1280.07 716.903 L 1228.94 716.904 L 1228.83 818.966 C 1211.68 819.238 1194.53 819.299 1177.38 819.149 L 1177.33 768.017 L 1075.06 768.002 L 1075.04 819.118 C 1041.42 819.15 1006.35 818.647 972.855 819.257 L 972.838 870.485 C 939.034 870.513 904.177 870.963 870.447 870.481 L 870.521 818.92 L 921.517 818.891 L 921.666 769.589 C 922.094 769.172 922.522 768.754 922.95 768.337 C 949.148 767.55 1000.24 767.946 1023.95 767.938 L 1024.08 716.821 C 1057.81 716.788 1092.76 717.233 1126.39 716.617 C 1126.4 699.642 1126.22 682.38 1126.41 665.434 z"/>
<path transform="translate(0,0)" fill="rgb(0,0,0)" d="M 870.632 255.991 L 1024.07 255.94 L 1024.05 307.152 C 990.464 307.171 955.234 306.674 921.767 307.396 L 921.79 358.463 C 888.062 358.506 852.788 358.014 819.187 358.757 L 819.114 409.575 C 802.372 409.592 784.729 409.322 768.063 409.703 L 768.117 511.992 L 716.905 512.013 L 716.874 563.068 C 699.794 563.11 682.457 563.314 665.401 563.152 C 665.346 529.917 664.58 493.815 665.514 460.809 C 682.324 460.766 700.019 461.001 716.756 460.569 L 716.904 358.393 L 716.944 307.357 L 768.041 307.029 L 870.254 306.91 C 870.348 290.645 870.003 272.057 870.632 255.991 z"/>
<path transform="translate(0,0)" fill="rgb(255,255,255)" d="M 768.041 307.029 L 767.955 358.315 C 751.329 358.322 733.421 357.984 716.904 358.393 L 716.944 307.357 L 768.041 307.029 z"/>
<path transform="translate(0,0)" fill="rgb(255,255,255)" d="M 1382.51 1024.03 L 1638.43 1024.02 C 1639.03 1057.62 1638.47 1092.86 1638.45 1126.59 L 1689.82 1126.59 C 1688.57 1142.75 1689.44 1171.05 1689.45 1188.23 L 1689.34 1305.27 L 1382.38 1305.17 C 1381.77 1270.17 1382.35 1233.41 1382.35 1198.27 C 1382.32 1140.88 1381.46 1081.23 1382.51 1024.03 z"/>
<path transform="translate(0,0)" fill="rgb(255,255,255)" d="M 1382.64 1363.35 C 1484.31 1362.21 1587.85 1363.14 1689.68 1363.23 C 1688.93 1420.44 1689.46 1478.67 1689.45 1535.96 L 1638.7 1536.03 C 1638.15 1552.53 1638.52 1570.96 1638.49 1587.61 L 1638.31 1638.32 L 1382.54 1638.36 C 1381.59 1599.88 1382.35 1557.89 1382.35 1519.08 C 1382.18 1467.17 1382.28 1415.26 1382.64 1363.35 z"/>
<path transform="translate(0,0)" fill="rgb(255,255,255)" d="M 1024.02 1363.36 C 1124.03 1362.41 1231.23 1362.03 1331.15 1363.42 L 1331.04 1465 L 1331 1638.34 L 1075.21 1638.34 L 1075.07 1535.96 L 1023.99 1536 L 1024.02 1363.36 z"/>
<path transform="translate(0,0)" fill="rgb(255,255,255)" d="M 716.969 1363.24 L 972.75 1363.33 C 973.571 1420.21 972.792 1479.03 972.786 1536.07 L 1023.99 1536 L 1023.93 1638.31 L 819.303 1638.37 L 819.203 1535.95 L 716.941 1535.93 L 716.93 1465 L 716.969 1363.24 z"/>
<path transform="translate(0,0)" fill="rgb(255,255,255)" d="M 1689.95 1024.02 L 1843.23 1024.03 L 1843.12 1126.62 C 1877.21 1126.34 1911.29 1126.35 1945.38 1126.66 L 1945.26 1202 L 1945.16 1305.27 C 1877.54 1305.29 1808.46 1305.96 1740.92 1305.23 L 1740.9 1126.55 C 1723.88 1126.35 1706.85 1126.37 1689.82 1126.59 L 1689.95 1024.02 z"/>
<path transform="translate(0,0)" fill="rgb(255,255,255)" d="M 1741.02 1363.28 C 1807.31 1362.02 1878.87 1362.98 1945.43 1363.3 L 1945.2 1535.91 L 1843.24 1536.02 C 1842.85 1552.78 1843.14 1570.66 1843.12 1587.5 L 1843.07 1638.35 L 1689.89 1638.42 L 1689.74 1536.07 L 1740.89 1535.99 L 1741.02 1363.28 z"/>
<path transform="translate(0,0)" fill="rgb(255,255,255)" d="M 1638.43 819.167 L 1740.69 819.259 C 1741.07 853.144 1740.73 887.677 1740.74 921.616 C 1774.59 921.157 1809.41 921.551 1843.32 921.736 L 1843.16 972.653 C 1792.81 973.394 1740.46 972.839 1689.99 972.651 L 1689.94 921.347 L 1638.61 921.124 C 1638.03 887.616 1638.49 852.782 1638.43 819.167 z"/>
<path transform="translate(0,0)" fill="rgb(255,255,255)" d="M 1587.15 767.998 L 1638.35 768.023 L 1638.3 818.913 L 1587.2 818.765 C 1586.98 801.971 1587.15 784.821 1587.15 767.998 z"/>
</svg>