<svg version="1.1" xmlns="http://www.w3.org/2000/svg" style="display: block;" viewBox="0 0 2048 2048" width="1024" height="1024" preserveAspectRatio="none">
<path transform="translate(0,0)" fill="rgb(255,255,255)" d="M 0 0 L 2048 0 L 2048 2048 L 0 2048 L 0 0 z"/>
<path transform="translate(0,0)" fill="rgb(255,255,255)" d="M 819.358 245.792 L 1229.01 245.758 L 1228.87 327.351 C 1276.21 327.358 1324.99 326.808 1372.21 327.601 C 1372.51 354.852 1372.55 382.105 1372.32 409.357 L 1454.36 409.259 C 1454.37 435.758 1454.98 464.913 1454.19 491.194 L 1494.99 491.405 L 1495.03 573.419 L 1454.36 573.31 L 1454.34 696.238 L 1371.96 696.357 C 1372.72 734 1373.36 781.419 1372.17 818.951 L 1453.72 818.876 L 1453.97 777.974 L 1536.01 778.087 L 1536.05 696.35 C 1549.53 696.123 1563.47 696.299 1576.99 696.3 L 1577.02 655.04 L 1638.15 655.096 C 1638.13 668.479 1637.82 683.128 1638.19 696.406 C 1638.52 737.175 1637.63 778.361 1638.19 818.994 C 1638.2 832.592 1638.05 846.496 1638.23 860.062 C 1692.45 860.06 1747.96 859.423 1802.07 860.135 C 1802.04 886.707 1802.62 915.644 1801.95 942.008 L 1884.1 941.972 L 1884.32 1269.77 L 1802.08 1269.97 L 1802.07 1433.55 L 1720.42 1433.84 L 1720.58 1515.21 C 1693.34 1515.29 1665.28 1515.71 1638.1 1515.28 L 1638.18 1597.31 C 1585.12 1597.65 1527.74 1598.57 1474.95 1597.34 L 1474.99 1679.2 L 1372.67 1679.25 C 1372.62 1692.74 1372.75 1706.7 1372.47 1720.14 L 1277.61 1720.29 C 1263.09 1720.31 1242.69 1720.96 1228.82 1720.25 C 1229.3 1747.09 1228.91 1775.12 1228.92 1802.06 C 1147.76 1803.11 1064.34 1802.08 982.981 1802.12 L 983.018 1843.12 L 942.373 1843.15 C 942.11 1856.66 942.256 1870.67 942.213 1884.22 L 901.06 1884.35 L 901.085 1925.18 L 859.969 1925.21 L 859.974 1884.23 L 819.082 1884.24 L 819.078 1802.03 L 675.919 1802.05 L 675.712 1720.31 C 622.069 1719.39 565.87 1720.25 512.039 1720.34 L 512.05 1679.2 C 485.241 1678.71 457.068 1679.16 430.151 1679.16 C 430.024 1651.85 430.06 1624.53 430.26 1597.21 C 404.52 1598.22 373.773 1597.54 347.758 1597.6 C 347.803 1570.54 347.47 1542.28 348.159 1515.33 C 321.169 1514.92 293.212 1515.29 266.142 1515.28 L 266.058 1433.87 L 245.396 1433.76 L 245.315 1328.85 C 245.311 1310.76 244.671 1287.29 245.76 1269.84 C 220.183 1270.73 189.969 1269.95 164.029 1269.95 L 164.029 860.153 C 191.297 859.936 218.567 859.956 245.835 860.214 C 244.421 836.215 245.385 803.118 245.424 778.529 C 245.49 737.76 244.934 695.712 245.754 655.072 L 327.391 655.006 C 327.223 627.793 327.337 600.578 327.733 573.367 C 361.064 572.629 396.543 573.176 430.086 573.108 C 429.909 545.866 429.929 518.624 430.148 491.382 L 512.023 491.376 L 512.115 409.355 L 593.603 409.297 C 593.027 383.262 593.419 353.593 593.919 327.491 C 666.444 325.796 746.18 327.358 819.121 327.261 C 818.971 300.105 819.05 272.947 819.358 245.792 z"/>
<path transform="translate(0,0)" fill="rgb(255,255,255)" d="M 1638.39 901.208 L 1719.79 901.102 L 1719.88 942.038 L 1801.95 942.008 L 1884.1 941.972 L 1884.32 1269.77 L 1802.08 1269.97 L 1802.07 1433.55 L 1720.42 1433.84 L 1720.58 1515.21 C 1693.34 1515.29 1665.28 1515.71 1638.1 1515.28 L 1638.18 1597.31 C 1585.12 1597.65 1527.74 1598.57 1474.95 1597.34 L 1474.99 1679.2 L 1372.67 1679.25 C 1372.62 1692.74 1372.75 1706.7 1372.47 1720.14 L 1277.61 1720.29 C 1263.09 1720.31 1242.69 1720.96 1228.82 1720.25 L 1064.99 1720.17 L 1064.98 1679.21 L 1105.96 1679.12 L 1105.93 1597.65 C 1132.57 1597.01 1161.09 1597.44 1187.84 1597.36 L 1187.96 1515.4 C 1201.61 1515.46 1215.26 1515.42 1228.91 1515.27 L 1228.89 1474.87 C 1242.33 1474.63 1256.27 1474.81 1269.75 1474.8 C 1269.85 1461.3 1269.63 1447.5 1269.55 1433.98 L 1290.17 1433.82 L 1290.21 1392.93 L 1331.02 1392.85 L 1331.07 1351.72 C 1344.92 1351.74 1358.76 1351.67 1372.61 1351.49 C 1372.5 1324.63 1372.07 1296.78 1372.69 1270.01 L 1454.58 1269.87 L 1454.5 1147.04 L 1495.02 1147.02 L 1495.02 1106.07 L 1536.09 1105.94 L 1536.08 1024.01 L 1576.92 1023.97 L 1576.97 942.209 L 1638.31 942.154 C 1638.23 928.505 1638.26 914.856 1638.39 901.208 z"/>
<path transform="translate(0,0)" fill="rgb(0,0,0)" d="M 1801.95 942.008 L 1884.1 941.972 L 1884.32 1269.77 L 1802.08 1269.97 L 1802.07 1433.55 L 1720.42 1433.84 L 1720.58 1515.21 C 1693.34 1515.29 1665.28 1515.71 1638.1 1515.28 L 1638.18 1433.49 C 1665.16 1433.04 1692.89 1433.33 1719.92 1433.31 L 1720.09 1269.84 C 1747.02 1269.31 1774.83 1269.59 1801.82 1269.52 L 1801.95 942.008 z"/>
<path transform="translate(0,0)" fill="rgb(0,0,0)" d="M 1372.19 1597.21 C 1405.96 1597.17 1441.31 1596.6 1474.95 1597.34 L 1474.99 1679.2 L 1372.67 1679.25 C 1372.62 1692.74 1372.75 1706.7 1372.47 1720.14 L 1277.61 1720.29 C 1263.09 1720.31 1242.69 1720.96 1228.82 1720.25 C 1228.12 1694.13 1228.82 1664.75 1228.86 1638.37 L 1371.91 1638.33 L 1372.19 1597.21 z"/>
<path transform="translate(0,0)" fill="rgb(0,0,0)" d="M 1638.1 1515.28 L 1638.18 1597.31 C 1585.12 1597.65 1527.74 1598.57 1474.95 1597.34 L 1474.98 1515.77 C 1528.71 1514.7 1584.25 1515.3 1638.1 1515.28 z"/>
<path transform="translate(0,0)" fill="rgb(0,0,0)" d="M 1577.02 655.04 L 1638.15 655.096 C 1638.13 668.479 1637.82 683.128 1638.19 696.406 C 1638.52 737.175 1637.63 778.361 1638.19 818.994 C 1638.2 832.592 1638.05 846.496 1638.23 860.062 C 1692.45 860.06 1747.96 859.423 1802.07 860.135 C 1802.04 886.707 1802.62 915.644 1801.95 942.008 L 1719.88 942.038 L 1719.79 901.102 L 1638.39 901.208 C 1638.26 914.856 1638.23 928.505 1638.31 942.154 L 1576.97 942.209 L 1576.92 1023.97 L 1536.08 1024.01 L 1536.09 1105.94 L 1495.02 1106.07 L 1495.02 1147.02 L 1454.5 1147.04 L 1454.58 1269.87 L 1372.69 1270.01 C 1372.07 1296.78 1372.5 1324.63 1372.61 1351.49 C 1358.76 1351.67 1344.92 1351.74 1331.07 1351.72 L 1331.02 1392.85 L 1290.21 1392.93 L 1290.17 1433.82 L 1269.55 1433.98 C 1269.63 1447.5 1269.85 1461.3 1269.75 1474.8 C 1256.27 1474.81 1242.33 1474.63 1228.89 1474.87 L 1228.91 1515.27 C 1215.26 1515.42 1201.61 1515.46 1187.96 1515.4 L 1187.84 1597.36 C 1161.09 1597.44 1132.57 1597.01 1105.93 1597.65 L 1105.96 1679.12 L 1064.98 1679.21 L 1064.99 1720.17 L 1228.82 1720.25 C 1229.3 1747.09 1228.91 1775.12 1228.92 1802.06 C 1147.76 1803.11 1064.34 1802.08 982.981 1802.12 L 983.018 1843.12 L 942.373 1843.15 C 942.11 1856.66 942.256 1870.67 942.213 1884.22 L 901.06 1884.35 L 901.085 1925.18 L 859.969 1925.21 L 859.974 1884.23 L 819.082 1884.24 L 819.078 1802.03 L 675.919 1802.05 L 675.712 1720.31 C 622.069 1719.39 565.87 1720.25 512.039 1720.34 L 512.05 1679.2 C 485.241 1678.71 457.068 1679.16 430.151 1679.16 C 430.024 1651.85 430.06 1624.53 430.26 1597.21 C 453.924 1596.06 487.62 1597.17 512.071 1597.2 L 512.087 1638.28 L 675.908 1638.38 L 675.798 1720.21 L 901.037 1720.16 L 901.096 1679.07 L 941.97 1678.9 L 942.033 1556.24 C 969.095 1555.88 996.847 1556.2 1023.96 1556.21 L 1024.09 1474.83 L 1064.96 1474.57 L 1065.01 1392.71 L 1105.36 1392.44 C 1106.08 1365.78 1105.66 1337.61 1105.89 1310.77 L 1146.92 1310.55 L 1146.99 1269.85 L 1187.58 1269.42 C 1188.12 1242.63 1187.75 1214.94 1187.99 1187.99 L 1228.8 1187.6 L 1228.95 1105.86 L 1289.68 1105.5 C 1290.17 1078.63 1289.92 1050.99 1289.97 1024.06 L 1331.09 1023.91 L 1331.23 983.041 L 1371.82 982.985 L 1372.04 941.982 L 1413.07 941.904 L 1413.17 901.19 L 1371.87 901.136 C 1371.76 873.741 1371.86 846.345 1372.17 818.951 L 1453.72 818.876 L 1453.97 777.974 L 1536.01 778.087 L 1536.05 696.35 C 1549.53 696.123 1563.47 696.299 1576.99 696.3 L 1577.02 655.04 z"/>
<path transform="translate(0,0)" fill="rgb(255,255,255)" d="M 1577.02 655.04 L 1638.15 655.096 C 1638.13 668.479 1637.82 683.128 1638.19 696.406 C 1638.52 737.175 1637.63 778.361 1638.19 818.994 C 1619.63 818.333 1595.9 818.944 1576.99 818.952 L 1576.95 859.961 L 1536.13 860.081 C 1535.8 832.944 1536.05 805.269 1536.01 778.087 L 1536.05 696.35 C 1549.53 696.123 1563.47 696.299 1576.99 696.3 L 1577.02 655.04 z"/>
<path transform="translate(0,0)" fill="rgb(0,0,0)" d="M 1576.99 696.3 L 1576.93 778.215 L 1536.01 778.087 L 1536.05 696.35 C 1549.53 696.123 1563.47 696.299 1576.99 696.3 z"/>
<path transform="translate(0,0)" fill="rgb(0,0,0)" d="M 1577.02 655.04 L 1638.15 655.096 C 1638.13 668.479 1637.82 683.128 1638.19 696.406 C 1618 696.012 1597.32 696.55 1576.99 696.3 L 1577.02 655.04 z"/>
<path transform="translate(0,0)" fill="rgb(0,0,0)" d="M 819.358 245.792 L 1229.01 245.758 L 1228.87 327.351 C 1093.14 328.983 955.012 327.53 819.065 327.63 L 819.046 409.485 L 593.977 409.716 L 594.098 491.285 L 512.023 491.376 L 512.115 409.355 L 593.603 409.297 C 593.027 383.262 593.419 353.593 593.919 327.491 C 666.444 325.796 746.18 327.358 819.121 327.261 C 818.971 300.105 819.05 272.947 819.358 245.792 z"/>
<path transform="translate(0,0)" fill="rgb(0,0,0)" d="M 164.029 860.153 C 191.297 859.936 218.567 859.956 245.835 860.214 C 247.75 978.214 244.694 1096.93 246.017 1214.98 C 246.219 1233.05 246.262 1251.79 245.76 1269.84 C 220.183 1270.73 189.969 1269.95 164.029 1269.95 L 164.029 860.153 z"/>
<path transform="translate(0,0)" fill="rgb(0,0,0)" d="M 512.023 491.376 L 512.171 573.264 L 430.416 573.334 L 430.526 655.144 L 327.559 655.218 C 327.812 722.46 328.643 793.071 327.569 860.204 C 301.486 860.257 271.603 861.038 245.835 860.214 C 244.421 836.215 245.385 803.118 245.424 778.529 C 245.49 737.76 244.934 695.712 245.754 655.072 L 327.391 655.006 C 327.223 627.793 327.337 600.578 327.733 573.367 C 361.064 572.629 396.543 573.176 430.086 573.108 C 429.909 545.866 429.929 518.624 430.148 491.382 L 512.023 491.376 z"/>
<path transform="translate(0,0)" fill="rgb(0,0,0)" d="M 245.76 1269.84 C 273.07 1269.55 300.381 1269.49 327.692 1269.68 L 327.744 1433.24 L 348.366 1433.52 C 348.39 1459.45 349.152 1489.74 348.159 1515.33 C 321.169 1514.92 293.212 1515.29 266.142 1515.28 L 266.058 1433.87 L 245.396 1433.76 L 245.315 1328.85 C 245.311 1310.76 244.671 1287.29 245.76 1269.84 z"/>
<path transform="translate(0,0)" fill="rgb(0,0,0)" d="M 1228.87 327.351 C 1276.21 327.358 1324.99 326.808 1372.21 327.601 C 1372.51 354.852 1372.55 382.105 1372.32 409.357 L 1454.36 409.259 C 1454.37 435.758 1454.98 464.913 1454.19 491.194 L 1371.93 491.434 L 1372.06 409.496 L 1228.76 409.646 C 1228.66 382.214 1228.69 354.782 1228.87 327.351 z"/>
<path transform="translate(0,0)" fill="rgb(0,0,0)" d="M 1454.19 491.194 L 1494.99 491.405 L 1495.03 573.419 L 1454.36 573.31 L 1454.34 696.238 L 1371.96 696.357 C 1371.33 683.624 1371.85 666.967 1371.88 654.004 L 1372.03 573.257 L 1454.02 573.101 C 1453.59 548.266 1453.3 515.695 1454.19 491.194 z"/>
<path transform="translate(0,0)" fill="rgb(0,0,0)" d="M 1290.01 696.391 L 1371.96 696.357 C 1372.72 734 1373.36 781.419 1372.17 818.951 C 1345.03 819.367 1317.12 819.071 1289.92 819.098 L 1290.01 696.391 z"/>
<path transform="translate(0,0)" fill="rgb(0,0,0)" d="M 348.159 1515.33 C 375.144 1515.41 403.552 1514.86 430.343 1515.45 C 430.497 1542.7 430.469 1569.96 430.26 1597.21 C 404.52 1598.22 373.773 1597.54 347.758 1597.6 C 347.803 1570.54 347.47 1542.28 348.159 1515.33 z"/>
<path transform="translate(0,0)" fill="rgb(0,0,0)" d="M 1024.15 409.369 L 1146.97 409.351 L 1147.02 450.766 L 1187.88 450.807 L 1187.93 491.286 L 1228.98 491.466 L 1229 532.17 L 1269.98 532.313 L 1270.06 614.509 C 1256.37 614.409 1242.69 614.47 1229.01 614.692 L 1229 655.186 C 1215.71 655.588 1201.32 655.371 1187.95 655.407 L 1187.82 696.345 C 1134.05 695.668 1077.83 696.092 1024.04 696.407 L 1024.03 614.763 C 1000.19 613.31 966.279 614.405 941.934 614.53 L 942.056 491.303 L 983.164 491.216 L 983.164 450.87 L 1023.93 450.735 L 1024.15 409.369 z"/>
<path transform="translate(0,0)" fill="rgb(0,0,0)" d="M 593.899 573.383 C 652.381 571.9 719.185 572.974 777.983 573.37 L 777.95 614.304 L 819.02 614.33 L 819.108 737.226 L 777.976 737.457 L 777.904 778.185 L 716.946 778.279 L 716.867 840.5 L 716.785 860.055 C 675.966 860.591 634.471 860.248 593.6 860.284 L 593.563 819.207 L 552.929 819.035 L 552.958 778.293 L 512.057 778.188 L 512.08 655.019 L 552.935 654.995 L 553 614.292 L 593.41 614.254 C 593.424 600.596 593.355 587.033 593.899 573.383 z"/>
<path transform="translate(0,0)" fill="rgb(0,0,0)" d="M 552.992 1269.81 C 593.355 1269.12 635.544 1269.56 675.951 1269.71 L 675.942 1310.49 C 689.389 1310.8 703.372 1310.69 716.866 1310.78 L 716.81 1351.33 L 757.826 1351.35 C 758.672 1405.34 757.999 1461.12 758.039 1515.25 L 716.907 1515.48 L 716.878 1556.4 C 703.517 1556.63 689.886 1556.56 676.5 1556.62 L 593.746 1556.53 C 593.53 1542.9 593.63 1529 593.588 1515.35 L 512.025 1515.37 L 512.035 1433.76 L 470.907 1433.74 L 470.998 1351.64 L 511.975 1351.3 L 512.088 1310.8 L 552.899 1310.66 L 552.992 1269.81 z"/>
<path transform="translate(0,0)" fill="rgb(0,0,0)" d="M 389.011 942.083 L 512.052 941.927 L 512.073 982.946 L 594 983.035 L 594.007 1105.98 L 553.004 1106.01 L 553.004 1146.99 L 512.034 1147.02 L 512.065 1187.91 L 347.883 1187.97 L 348.006 1106.02 L 307.026 1105.98 L 307.147 1024.02 L 347.955 1023.93 L 347.981 983.009 L 388.927 982.942 L 389.011 942.083 z"/>
<path transform="translate(0,0)" fill="rgb(0,0,0)" d="M 1802.02 245.862 C 1815.7 245.678 1829.39 245.643 1843.08 245.758 L 1843.12 286.66 L 1883.99 286.801 L 1884.1 573.335 C 1870.56 573.399 1856.61 573.28 1843.11 573.544 L 1843.08 614.437 C 1829.97 614.439 1815.34 614.145 1802.36 614.625 L 1802.39 655.294 L 1761.41 655.398 C 1761.44 668.14 1761.89 683.754 1761.36 696.261 C 1747.74 696.273 1733.63 696.111 1720.05 696.475 L 1720.08 778.151 C 1706.95 778.202 1692.04 777.937 1679.06 778.501 L 1679.05 819.069 C 1666.14 819.096 1650.92 819.498 1638.19 818.994 C 1637.63 778.361 1638.52 737.175 1638.19 696.406 C 1637.82 683.128 1638.13 668.479 1638.15 655.096 L 1638.22 573.466 C 1624.64 573.416 1610.54 573.188 1597.01 573.62 L 1597.19 450.893 L 1638.19 450.772 L 1638.29 409.34 L 1678.92 409.191 L 1679.03 368.371 L 1761.11 368.266 C 1761.15 355.206 1760.86 340.446 1761.33 327.528 L 1801.93 327.132 C 1801.92 300.374 1801.51 272.533 1802.02 245.862 z"/>
<path transform="translate(0,0)" fill="rgb(255,255,255)" d="M 1638.15 655.096 C 1651.51 655.211 1665.67 655.096 1678.96 655.504 L 1679 696.111 C 1665.85 696.196 1651.2 695.955 1638.19 696.406 C 1637.82 683.128 1638.13 668.479 1638.15 655.096 z"/>
</svg>