<svg version="1.1" xmlns="http://www.w3.org/2000/svg" style="display: block;" viewBox="0 0 2048 2048" width="1024" height="1024" preserveAspectRatio="none">
<path transform="translate(0,0)" fill="rgb(255,255,255)" d="M 0 0 L 2048 0 L 2048 2048 L 0 2048 L 0 0 z"/>
<path transform="translate(0,0)" fill="rgb(0,0,0)" d="M 1432.44 231.926 C 1479.84 231.344 1528.32 231.844 1575.8 231.835 L 1576.04 279.681 L 1624.74 279.757 L 1624.73 616.034 L 1672.16 616.023 C 1672.58 647.858 1672.06 680.16 1672.31 712.096 L 1720.73 712.018 C 1721.48 749.799 1720.83 789.48 1720.82 827.481 L 1720.78 1048.91 L 1672.19 1049 L 1672.23 1193.24 L 1624.8 1193.42 L 1624.87 1289.4 L 1576.55 1289.58 C 1576.32 1305.57 1576.48 1321.97 1576.46 1338 L 1528.63 1338.1 L 1528.6 1436.47 L 1479.97 1436.51 L 1480 1486.49 C 1464.83 1486.94 1448.05 1486.64 1432.74 1486.68 L 1432.79 1535.99 L 1383.98 1536.01 C 1383.82 1552.57 1384 1569.43 1384.02 1586.02 L 1287.99 1586.13 L 1288.03 1635.82 L 1191.9 1635.96 L 1191.82 1686.11 L 1095.99 1686.17 L 1096.07 1736.04 L 903.415 1736.02 L 903.438 1786.21 L 615.114 1786.17 L 615.175 1736.12 L 568.5 1736.01 L 471.261 1736.02 L 471.535 1686.15 L 375.679 1686.1 L 375.612 1635.91 C 343.981 1635.37 311.103 1635.82 279.372 1635.81 C 279.539 1619.24 279.622 1602.67 279.622 1586.09 L 231.285 1586.02 L 231.393 1436.43 C 246.955 1436 263.775 1436.27 279.435 1436.24 C 279.433 1419.75 279.516 1403.26 279.682 1386.77 C 295.538 1386.78 311.394 1386.7 327.248 1386.52 C 327.232 1370.34 327.347 1354.17 327.591 1337.99 L 519.216 1337.72 L 519.586 1289.48 C 566.805 1288.62 616.318 1289.31 663.703 1289.27 L 663.765 1241.32 C 695.17 1240.66 728.257 1241.15 759.793 1241.12 L 759.842 1193.23 L 855.605 1193.13 L 855.651 1145.09 L 903.199 1144.96 C 903.198 1128.95 903.289 1112.95 903.472 1096.94 L 951.856 1096.85 L 951.927 1048.77 L 999.186 1048.44 C 999.215 1032.55 999.341 1016.66 999.564 1000.78 L 1047.79 1000.78 L 1047.93 952.752 L 1095.27 952.517 L 1095.57 904.507 L 1143.8 904.45 L 1143.94 808.408 C 1159.69 808.208 1175.71 808.339 1191.48 808.313 C 1192.17 776.788 1191.74 743.707 1191.7 712.098 L 1239.74 712.03 L 1240.02 616.04 L 1287.66 615.963 C 1288.01 600.297 1287.78 583.809 1287.8 568.079 L 1335.96 567.969 L 1336.24 519.989 L 1383.52 519.808 C 1384.8 440.575 1383.54 359.3 1383.8 279.823 L 1432.01 279.666 C 1431.95 263.752 1432.1 247.837 1432.44 231.926 z"/>
<path transform="translate(0,0)" fill="rgb(255,255,255)" d="M 1480.01 376.345 C 1496.16 376.067 1512.3 376.078 1528.44 376.378 C 1527.02 454.828 1528.25 537.182 1528.23 616.028 L 1575.81 616.119 L 1575.94 712.016 L 1624.36 712.043 L 1624.39 1048.56 C 1608.5 1048.86 1591.95 1048.67 1576.01 1048.71 L 1575.94 1193.08 L 1528.6 1193.28 C 1527.66 1224.04 1528.34 1258.24 1528.31 1289.27 L 1480.01 1289.48 L 1479.92 1386.45 C 1464.72 1387.01 1447.9 1386.69 1432.58 1386.7 C 1432.03 1402.63 1432.36 1420.14 1432.34 1436.2 L 1383.82 1436.39 L 1383.61 1485.99 L 1287.67 1486.25 C 1287.06 1501.91 1287.42 1520.03 1287.36 1535.88 L 1240.02 1536.01 L 1239.98 1585.37 C 1192.08 1586.06 1143.72 1585.32 1095.7 1585.73 C 1095.36 1602.11 1095.54 1619.04 1095.35 1635.52 L 952.017 1635.71 L 951.805 1685.8 L 568.086 1685.77 L 567.948 1635.52 L 518.5 1635.54 L 423.362 1635.68 C 423.498 1618.98 423.504 1602.27 423.381 1585.57 C 407.583 1585.64 391.784 1585.58 375.986 1585.39 L 375.853 1535.88 L 327.465 1535.96 C 327.025 1503.03 327.321 1469.58 327.332 1436.61 C 389.35 1435.21 456.773 1436.62 519.218 1436.41 C 519.655 1420.42 519.355 1403 519.398 1386.9 L 664.06 1386.73 L 664.004 1338.06 L 759.903 1337.97 L 759.816 1289.56 C 791.169 1288.88 824.536 1289.4 855.998 1289.33 L 855.867 1241.73 L 903.689 1241.63 L 903.547 1193.56 C 918.698 1192.91 936.893 1193.3 952.28 1193.24 L 952.122 1145.36 C 967.82 1145.06 984.074 1145.22 999.818 1145.16 L 999.806 1097.04 L 1048.18 1097 L 1048.15 1049 L 1095.9 1048.94 L 1095.88 1000.86 C 1111.82 1000.58 1128.43 1000.8 1144.43 1000.79 L 1144.19 952.843 L 1191.95 952.651 L 1191.95 856.755 C 1207.61 856.371 1224.35 856.638 1240.09 856.612 L 1240.07 760.458 C 1255.95 760.238 1272.13 760.349 1288.03 760.297 L 1288.02 664.61 C 1303.59 664.103 1320.6 664.402 1336.27 664.381 L 1336.17 615.992 L 1383.93 616.038 L 1383.88 568.481 C 1415.4 567.711 1448.33 568.184 1479.95 568.215 L 1480.01 376.345 z"/>
<path transform="translate(0,0)" fill="rgb(0,0,0)" d="M 1432.52 952.767 C 1448.31 952.659 1464.1 952.647 1479.88 952.73 C 1481.13 998.837 1480.01 1050.47 1480.01 1097 L 1432.55 1096.98 L 1432.77 1193.2 L 1383.98 1193.43 L 1383.99 1289.47 C 1368.26 1289.69 1352.07 1289.49 1336.3 1289.48 L 1336.35 1337.99 L 1287.97 1338.07 L 1287.99 1386.82 L 1240.06 1386.78 L 1240.15 1436.46 C 1208.7 1437 1175.89 1436.53 1144.33 1436.55 C 1144.5 1453.18 1144.55 1469.81 1144.47 1486.44 C 1112.35 1486.67 1080.22 1486.68 1048.1 1486.46 L 1048.32 1535.97 L 952.237 1535.98 C 951.846 1552.04 952.271 1569.81 952.311 1586 L 520.572 1586.04 C 518.344 1583.12 519.562 1542.97 519.638 1536 C 646.798 1534.67 775.95 1536.08 903.325 1535.87 L 903.585 1486.21 C 951.321 1485.6 1000.03 1486.04 1047.84 1486.02 L 1047.96 1436.44 C 1079.25 1435.71 1112.55 1436.29 1143.99 1436.3 L 1144.01 1386.74 C 1159.84 1386.79 1175.67 1386.7 1191.5 1386.48 L 1191.85 1338 L 1239.98 1337.86 L 1240.08 1289.4 L 1287.37 1289.17 L 1287.72 1241.31 L 1336.06 1241.14 L 1336.07 1145.08 L 1383.6 1144.94 L 1383.89 1048.74 L 1432.31 1048.55 C 1432.18 1016.62 1432.25 984.693 1432.52 952.767 z"/>
<path transform="translate(0,0)" fill="rgb(0,0,0)" d="M 1479.73 664.307 C 1496.01 664.16 1512.28 664.152 1528.56 664.281 C 1528.67 759.977 1529.52 857.13 1528.57 952.724 C 1512.46 952.728 1495.96 952.927 1479.88 952.73 C 1479.11 921.627 1479.93 887.571 1479.93 856.235 L 1479.73 664.307 z"/>
<path transform="translate(0,0)" fill="rgb(0,0,0)" d="M 1576.21 1535.99 L 1624.7 1535.93 C 1624.82 1552.57 1624.83 1569.2 1624.76 1585.83 C 1640.58 1585.47 1656.41 1585.41 1672.24 1585.65 C 1672.64 1602.03 1672.43 1619.32 1672.49 1635.77 C 1656.88 1636.04 1640.51 1635.75 1624.85 1635.72 L 1624.86 1686.03 L 1576.19 1686.16 L 1576.11 1635.89 L 1528.31 1635.82 C 1528.2 1619.13 1528.3 1602.45 1528.61 1585.76 L 1576.18 1585.39 C 1576.1 1568.93 1576.11 1552.46 1576.21 1535.99 z"/>
<path transform="translate(0,0)" fill="rgb(255,255,255)" d="M 1576.42 1585.94 C 1592.53 1586.13 1608.65 1586.09 1624.76 1585.83 C 1624.4 1602.1 1624.71 1619.13 1624.77 1635.46 C 1608.67 1635.38 1592.58 1635.42 1576.48 1635.58 C 1576.29 1619.14 1576.44 1602.4 1576.42 1585.94 z"/>
<path transform="translate(0,0)" fill="rgb(0,0,0)" d="M 903.482 808.416 C 919.654 808.245 935.827 808.245 951.999 808.416 L 952.147 856.346 L 999.849 856.443 L 999.719 904.65 L 951.995 904.58 L 951.962 952.743 L 903.343 952.778 L 903.316 904.717 C 887.856 904.236 871.086 904.509 855.526 904.475 L 855.725 856.583 C 870.793 856.018 887.965 856.348 903.196 856.29 C 903.189 840.331 903.284 824.373 903.482 808.416 z"/>
<path transform="translate(0,0)" fill="rgb(0,0,0)" d="M 1191.85 279.798 C 1207.75 279.49 1224.29 279.756 1240.24 279.803 L 1240.46 327.88 L 1287.92 327.882 L 1287.92 376.094 L 1240.07 376.146 L 1240.29 423.759 C 1224.31 424.065 1207.64 423.798 1191.61 423.765 L 1191.6 376.127 L 1143.98 376.098 L 1144.12 327.995 L 1191.41 327.736 L 1191.85 279.798 z"/>
<path transform="translate(0,0)" fill="rgb(0,0,0)" d="M 1720.62 423.956 C 1736.62 423.887 1752.61 423.9 1768.61 423.997 C 1768.8 439.896 1768.63 456.117 1768.64 472.046 L 1816.93 472.003 L 1816.99 519.683 C 1801.27 520.086 1784.42 519.773 1768.62 519.754 C 1768.81 535.798 1768.68 552.031 1768.68 568.091 L 1720.4 568.313 C 1720.2 552.133 1720.23 535.95 1720.48 519.77 L 1672.01 519.838 L 1672.12 471.989 L 1720.28 471.888 C 1720.16 455.91 1720.27 439.931 1720.62 423.956 z"/>
<path transform="translate(0,0)" fill="rgb(255,255,255)" d="M 1720.72 472.152 C 1736.07 472.177 1753.46 471.814 1768.64 472.422 L 1768.62 519.754 L 1720.82 519.77 L 1720.72 472.152 z"/>
<path transform="translate(0,0)" fill="rgb(0,0,0)" d="M 615.506 1096.89 L 663.844 1096.88 L 664.024 1145.09 L 615.721 1145.16 L 615.735 1193.27 L 567.699 1193.23 C 567.656 1177.18 567.72 1161.13 567.889 1145.08 L 615.35 1145.01 C 615.295 1128.97 615.347 1112.93 615.506 1096.89 z"/>
<path transform="translate(0,0)" fill="rgb(0,0,0)" d="M 1397.67 1635.48 C 1409.17 1635.3 1421.19 1635.51 1432.73 1635.55 C 1433.03 1652.21 1432.88 1669.3 1432.94 1685.99 L 1423.25 1686.03 L 1383.76 1686.12 L 1383.93 1635.75 L 1397.67 1635.48 z"/>
<path transform="translate(0,0)" fill="rgb(0,0,0)" d="M 327.561 1786.03 L 376 1786.05 L 376.027 1836.03 L 327.369 1836.15 C 327.201 1819.44 327.265 1802.74 327.561 1786.03 z"/>
<path transform="translate(0,0)" fill="rgb(0,0,0)" d="M 1239.98 1786.03 L 1287.93 1786 L 1287.95 1836.24 C 1272.51 1836.61 1255.48 1836.22 1239.91 1836.19 L 1239.98 1786.03 z"/>
<path transform="translate(0,0)" fill="rgb(0,0,0)" d="M 1672.42 1337.94 L 1720.78 1337.94 C 1721 1354.07 1720.83 1370.56 1720.84 1386.72 L 1672.27 1386.84 C 1672.1 1370.54 1672.15 1354.24 1672.42 1337.94 z"/>
<path transform="translate(0,0)" fill="rgb(0,0,0)" d="M 1672.25 183.875 C 1688.11 183.577 1704.57 183.819 1720.48 183.846 C 1720.97 199.342 1720.72 216.233 1720.78 231.838 L 1671.97 231.907 C 1671.9 215.896 1671.99 199.884 1672.25 183.875 z"/>
<path transform="translate(0,0)" fill="rgb(0,0,0)" d="M 519.553 1096.92 L 567.44 1096.82 C 568.655 1109.42 568.016 1131.77 567.889 1145.08 L 519.351 1145.15 C 519.379 1129.78 518.977 1112.1 519.553 1096.92 z"/>
<path transform="translate(0,0)" fill="rgb(0,0,0)" d="M 663.768 1048.79 C 679.816 1048.61 695.865 1048.58 711.914 1048.71 L 711.822 1097 L 663.844 1096.88 C 663.713 1080.85 663.687 1064.82 663.768 1048.79 z"/>
<path transform="translate(0,0)" fill="rgb(0,0,0)" d="M 327.753 1145.06 L 375.926 1145.08 L 376.011 1193.19 L 327.439 1193.24 C 327.279 1177.18 327.384 1161.12 327.753 1145.06 z"/>
<path transform="translate(0,0)" fill="rgb(0,0,0)" d="M 1095.98 664.274 C 1112.1 664.071 1128.22 664.094 1144.33 664.343 L 1144.5 711.968 L 1095.77 712.02 C 1095.58 696.105 1095.65 680.187 1095.98 664.274 z"/>
<path transform="translate(0,0)" fill="rgb(0,0,0)" d="M 1768.8 760.22 C 1784.85 760.087 1800.89 760.131 1816.94 760.351 L 1817.01 808.278 L 1768.63 808.483 L 1768.8 760.22 z"/>
<path transform="translate(0,0)" fill="rgb(0,0,0)" d="M 567.898 1000.87 C 583.411 1000.48 600.083 1000.82 615.681 1000.85 C 615.968 1016.59 615.684 1033.07 615.643 1048.86 L 567.733 1048.95 L 567.898 1000.87 z"/>
</svg>