<svg version="1.1" xmlns="http://www.w3.org/2000/svg" style="display: block;" viewBox="0 0 2048 2048" width="1024" height="1024" preserveAspectRatio="none">
<path transform="translate(0,0)" fill="rgb(255,255,255)" d="M 0 0 L 2048 0 L 2048 2048 L 0 2048 L 0 0 z"/>
<path transform="translate(0,0)" fill="rgb(0,0,0)" d="M 1515.24 450.929 L 1720.48 450.802 C 1722.32 544.381 1720.77 643.258 1720.66 737.292 C 1706.79 737.342 1692.91 737.475 1679.03 737.69 L 1679.04 819.062 L 1638.22 819.042 C 1638.9 845.503 1638.29 874.456 1638.26 901.106 L 1597.18 901.138 L 1597.29 941.983 L 1556.93 942.185 L 1556.84 983.007 L 1515.64 983.137 L 1515.78 1023.91 L 1474.96 1024 C 1474.79 1037.57 1474.91 1051.37 1474.9 1064.95 L 1433.8 1064.95 L 1433.9 1105.86 L 1392.95 1106.05 L 1392.93 1187.35 L 1413.03 1187.7 L 1413.01 1351.49 L 1392.99 1351.65 L 1393 1392.59 L 1351.94 1392.81 L 1351.83 1433.65 L 1310.9 1433.8 L 1310.85 1474.79 L 1270.17 1474.78 L 1270.24 1515.38 L 1228.99 1515.61 L 1228.93 1556.41 C 1215.47 1556.73 1201.5 1556.6 1188 1556.65 L 1187.94 1310.96 C 1174.53 1310.67 1160.41 1310.89 1146.95 1310.88 L 1147.04 1269.89 L 1105.95 1269.68 L 1105.86 1229.01 L 1064.97 1228.98 L 1064.98 1310.85 L 1023.95 1310.88 L 1024.01 1269.84 L 982.983 1269.81 L 982.997 1229.02 L 941.949 1228.92 L 941.809 1187.85 L 900.952 1187.85 L 900.932 1146.93 L 982.969 1146.89 L 982.963 1105.98 L 941.94 1105.9 L 941.88 1064.92 L 921.711 1064.91 L 900.931 1064.89 L 900.895 1024.04 L 695.957 1023.98 L 696.047 982.975 L 737.141 982.924 C 737.08 969.344 737.1 955.764 737.2 942.184 L 777.652 941.792 L 777.935 901.193 L 819.046 901.042 L 819.166 860.315 L 860.011 860.06 L 860.07 819.015 L 1105.89 818.976 L 1106.03 778.029 L 1147.03 778.14 L 1147.14 737.336 L 1187.93 737.157 L 1187.92 696.436 L 1228.87 696.132 L 1228.98 655.164 L 1269.32 655.043 C 1269.27 641.502 1269.36 627.961 1269.57 614.422 L 1310.71 614.426 L 1310.92 573.28 L 1351.25 573.176 C 1351.27 559.541 1351.36 545.908 1351.52 532.274 C 1378.33 531.773 1406.44 532.189 1433.35 532.178 C 1433.38 518.664 1433.52 505.15 1433.76 491.638 C 1459.84 490.79 1488.67 491.297 1515.03 491.115 L 1515.24 450.929 z"/>
<path transform="translate(0,0)" fill="rgb(255,255,255)" d="M 1392.77 573.385 L 1433.56 573.386 C 1433.52 586.952 1433.29 601.014 1433.54 614.537 C 1446.97 614.568 1461.47 614.332 1474.81 614.707 L 1474.77 655.283 C 1488.04 655.293 1501.83 655.113 1515.05 655.386 L 1515.13 696.325 C 1528.5 696.313 1543.46 695.995 1556.69 696.498 L 1556.41 737.336 L 1597.18 737.368 L 1597.15 778.291 C 1610.5 778.277 1624.67 778.018 1637.96 778.298 C 1637.97 790.54 1637.5 807.161 1638.22 819.042 L 1597.22 819.034 L 1597.22 860.071 L 1556.62 860.275 L 1556.34 901.066 L 1515.22 901.169 L 1515.06 941.653 C 1501.61 941.876 1488.16 942.013 1474.71 942.062 C 1474.59 955.676 1474.61 969.291 1474.77 982.904 L 1433.66 982.991 C 1433.39 996.718 1433.57 1010.28 1433.37 1023.93 L 1392.89 1024.04 L 1392.79 1064.8 L 1351.47 1064.97 L 1351.19 1105.52 L 1310.77 1105.86 L 1310.54 1146.87 L 1269.6 1147 L 1269.33 1187.76 L 1228.95 1187.91 L 1228.87 1228.54 C 1201.62 1228.89 1174.36 1228.95 1147.11 1228.71 L 1146.99 1187.72 L 1106.09 1187.49 C 1106.11 1174.07 1105.99 1160.43 1106.16 1147.03 L 1147.02 1146.98 L 1147.08 1106.02 L 1188.09 1105.99 L 1188.01 1064.93 L 1228.99 1064.93 L 1228.94 1024.02 L 1270.35 1024 L 1270.13 982.927 L 1228.94 982.882 L 1228.94 942.006 C 1215.42 942.053 1201.43 941.917 1187.95 942.196 L 1187.82 982.9 L 1147.03 982.947 L 1147.01 1023.95 C 1140.39 1023.89 1110.45 1023.27 1105.91 1024.75 L 1105.65 1064.84 L 1064.99 1064.95 L 1064.94 1105.46 C 1051.32 1105.7 1037.69 1105.78 1024.07 1105.69 L 1024.08 1065.01 L 982.958 1064.93 C 982.949 1037.89 982.583 1010.05 982.961 983.084 L 1024.08 982.99 L 1024.06 942.16 L 1064.99 942.1 L 1064.96 901.293 L 1106.18 901.058 L 1106.09 860.344 L 1147.01 860.191 L 1147.09 819.301 L 1188.15 819.09 L 1188.05 778.242 L 1228.97 778.152 L 1228.98 737.58 L 1270.03 737.262 L 1269.85 696.509 C 1283.55 696.255 1297.25 696.115 1310.94 696.089 L 1310.94 655.412 L 1351.6 655.241 L 1351.48 614.821 L 1392.88 614.387 L 1392.77 573.385 z"/>
<path transform="translate(0,0)" fill="rgb(0,0,0)" d="M 1351.82 737.441 C 1392.44 736.735 1434.23 737.221 1474.94 737.216 C 1474.83 776.292 1476.21 821.777 1474.72 860.167 L 1351.62 860.196 C 1351.49 821.178 1350.5 776.144 1351.82 737.441 z"/>
<path transform="translate(0,0)" fill="rgb(0,0,0)" d="M 819.279 1228.9 C 846.544 1228.75 873.81 1228.75 901.075 1228.9 L 901.088 1269.27 L 942.3 1269.62 L 942.152 1310.6 L 982.988 1310.79 L 983.001 1392.59 L 942.22 1392.81 C 942.081 1406.31 942.264 1420.11 942.296 1433.64 L 900.857 1433.73 L 900.882 1392.52 L 819.053 1392.82 L 819.032 1433.65 L 777.775 1433.7 L 777.881 1351.7 L 819.066 1351.38 L 819.184 1310.92 C 805.55 1310.74 791.587 1310.89 777.924 1310.87 L 778.027 1269.61 C 791.357 1269.18 805.645 1269.33 819.052 1269.24 C 819.045 1255.79 819.121 1242.35 819.279 1228.9 z"/>
<path transform="translate(0,0)" fill="rgb(0,0,0)" d="M 1679.11 1146.98 L 1720.53 1146.97 L 1720.58 1187.56 L 1761.63 1187.66 C 1761.89 1201.09 1761.57 1215.47 1761.5 1228.97 L 1720.79 1228.94 L 1720.67 1269.58 C 1707.19 1269.98 1692.62 1269.76 1679.06 1269.8 L 1679.03 1229.03 L 1638.33 1228.98 C 1638.04 1215.24 1638.06 1201.5 1638.36 1187.77 L 1679.06 1187.57 L 1679.11 1146.98 z"/>
<path transform="translate(0,0)" fill="rgb(0,0,0)" d="M 1024.07 450.948 C 1037.57 450.776 1051.36 450.911 1064.89 450.898 L 1064.92 491.344 C 1078.23 491.681 1092.54 491.446 1105.93 491.47 L 1105.98 532.681 L 1064.96 532.869 L 1064.97 573.159 L 1023.95 573.341 L 1024.02 532.701 C 1010.87 532.308 996.214 532.614 982.949 532.603 L 983.01 491.576 L 1023.96 491.338 L 1024.07 450.948 z"/>
<path transform="translate(0,0)" fill="rgb(0,0,0)" d="M 778.011 368.665 C 791.465 368.456 805.533 368.683 819.038 368.695 L 819.017 409.431 L 778.295 409.574 L 778.243 450.741 L 737.206 450.758 C 737.17 436.976 737.238 423.194 737.412 409.413 L 777.967 409.349 L 778.011 368.665 z"/>
<path transform="translate(0,0)" fill="rgb(0,0,0)" d="M 491.19 573.335 C 505.008 573.145 518.828 573.137 532.647 573.311 C 533.131 586.252 532.827 601.343 532.895 614.46 L 491.127 614.618 C 490.998 600.942 491.161 587.032 491.19 573.335 z"/>
<path transform="translate(0,0)" fill="rgb(0,0,0)" d="M 331.594 1269.52 C 344.028 1269.33 356.464 1269.39 368.895 1269.7 C 368.987 1276.57 370.017 1305.56 367.885 1310.33 L 365.25 1310.84 L 327.411 1310.81 C 327.329 1303.56 326.024 1273.81 328.688 1269.91 L 331.594 1269.52 z"/>
<path transform="translate(0,0)" fill="rgb(0,0,0)" d="M 327.444 1105.92 C 341.019 1105.62 355.183 1105.82 368.807 1105.83 L 368.838 1146.96 L 327.348 1146.94 C 327.226 1133.27 327.258 1119.59 327.444 1105.92 z"/>
<path transform="translate(0,0)" fill="rgb(0,0,0)" d="M 573.702 1515.51 C 587.268 1515.37 600.836 1515.4 614.402 1515.61 C 614.748 1528.89 614.447 1543.18 614.385 1556.54 C 601.12 1556.91 586.568 1556.63 573.206 1556.65 C 573.193 1544.8 572.702 1526.82 573.702 1515.51 z"/>
<path transform="translate(0,0)" fill="rgb(0,0,0)" d="M 327.473 982.933 L 368.944 982.988 L 368.925 1023.94 L 327.259 1024.02 C 327.23 1010.33 327.302 996.63 327.473 982.933 z"/>
<path transform="translate(0,0)" fill="rgb(0,0,0)" d="M 491.2 1474.81 C 504.889 1474.56 519.173 1474.76 532.912 1474.74 L 532.978 1515.3 C 519.318 1515.6 504.9 1515.37 491.181 1515.37 C 491.111 1501.85 491.117 1488.33 491.2 1474.81 z"/>
<path transform="translate(0,0)" fill="rgb(0,0,0)" d="M 737.191 1515.42 L 737.217 1556.67 L 696.109 1556.65 L 696.136 1515.5 L 737.191 1515.42 z"/>
<path transform="translate(0,0)" fill="rgb(0,0,0)" d="M 696.23 1392.5 C 709.727 1392.14 723.712 1392.37 737.254 1392.44 L 737.176 1433.61 L 696.005 1433.73 C 695.879 1419.99 695.953 1406.25 696.23 1392.5 z"/>
<path transform="translate(0,0)" fill="rgb(0,0,0)" d="M 860.233 245.799 L 901.253 245.793 L 901.175 286.82 L 860.052 286.802 C 860.054 273.465 859.803 259.043 860.233 245.799 z"/>
<path transform="translate(0,0)" fill="rgb(0,0,0)" d="M 450.749 1392.49 C 464.362 1392.38 477.975 1392.37 491.588 1392.44 C 491.934 1405.76 491.661 1420.17 491.656 1433.56 C 478.191 1433.82 464.212 1433.66 450.702 1433.71 C 450.641 1419.97 450.657 1406.23 450.749 1392.49 z"/>
<path transform="translate(0,0)" fill="rgb(0,0,0)" d="M 409.816 655.268 C 423.468 655.154 437.12 655.134 450.771 655.208 L 450.792 696.245 C 437.082 696.086 423.371 696.152 409.663 696.443 C 409.626 683.924 409.127 667.458 409.816 655.268 z"/>
<path transform="translate(0,0)" fill="rgb(0,0,0)" d="M 778.067 1556.13 L 819.021 1556.12 L 819.079 1597.27 L 777.969 1597.37 L 778.067 1556.13 z"/>
<path transform="translate(0,0)" fill="rgb(0,0,0)" d="M 860.044 327.392 L 901.134 327.466 L 901.102 368.888 L 860.029 368.853 C 860.03 355.356 859.74 340.793 860.044 327.392 z"/>
<path transform="translate(0,0)" fill="rgb(0,0,0)" d="M 378.9 1433.49 C 389.069 1433.35 399.597 1433.48 409.794 1433.49 C 409.898 1444.88 410.508 1462.58 409.575 1473.35 C 407.196 1475.38 407.244 1474.67 403.25 1474.77 L 368.736 1474.81 C 368.787 1465.74 368.08 1442.3 369.298 1434.82 C 371.775 1433.06 375.673 1433.51 378.9 1433.49 z"/>
<path transform="translate(0,0)" fill="rgb(0,0,0)" d="M 205.034 1392.43 C 218.688 1392.29 232.343 1392.32 245.996 1392.52 L 245.975 1433.61 L 204.913 1433.64 C 204.788 1419.91 204.829 1406.17 205.034 1392.43 z"/>
<path transform="translate(0,0)" fill="rgb(0,0,0)" d="M 327.577 860.234 C 341.376 860.13 355.176 860.145 368.975 860.279 L 368.987 901.03 L 327.41 901.074 L 327.577 860.234 z"/>
<path transform="translate(0,0)" fill="rgb(0,0,0)" d="M 409.722 1638.3 C 423.385 1638.21 437.049 1638.23 450.712 1638.39 L 450.725 1679.3 L 409.478 1679.27 C 409.288 1665.62 409.369 1651.96 409.722 1638.3 z"/>
<path transform="translate(0,0)" fill="rgb(0,0,0)" d="M 704.898 327.483 L 737.484 327.479 C 737.572 334.743 738.917 364.481 735.827 368.528 L 732.25 368.791 L 696.338 368.823 C 696.331 360.497 695.807 335.525 696.984 328.769 C 699.206 327.049 701.904 327.503 704.898 327.483 z"/>
<path transform="translate(0,0)" fill="rgb(0,0,0)" d="M 614.43 1433.43 C 628.014 1433.34 641.599 1433.33 655.184 1433.4 L 655.079 1474.81 L 614.26 1474.79 C 614.196 1461 614.253 1447.21 614.43 1433.43 z"/>
<path transform="translate(0,0)" fill="rgb(0,0,0)" d="M 409.868 532.325 C 423.501 532.164 437.136 532.167 450.769 532.335 L 450.834 573.153 L 409.557 573.393 C 409.487 559.666 409.302 546.044 409.868 532.325 z"/>
<path transform="translate(0,0)" fill="rgb(0,0,0)" d="M 245.855 942.006 L 286.748 941.982 L 286.888 982.912 L 245.67 983.025 C 245.485 969.352 245.547 955.677 245.855 942.006 z"/>
<path transform="translate(0,0)" fill="rgb(0,0,0)" d="M 409.709 819.051 L 450.757 819.017 C 450.825 832.311 451.154 846.919 450.598 860.086 L 409.532 860.266 C 409.323 846.528 409.382 832.787 409.709 819.051 z"/>
<path transform="translate(0,0)" fill="rgb(0,0,0)" d="M 286.724 1597.24 L 327.577 1597.15 C 327.691 1610.86 327.638 1624.57 327.419 1638.28 L 286.527 1638.41 L 286.724 1597.24 z"/>
<path transform="translate(0,0)" fill="rgb(0,0,0)" d="M 245.651 1146.97 L 286.795 1146.96 L 286.867 1187.81 L 245.632 1187.85 C 245.534 1174.22 245.541 1160.6 245.651 1146.97 z"/>
<path transform="translate(0,0)" fill="rgb(0,0,0)" d="M 163.979 1105.92 C 177.412 1105.64 191.439 1105.85 204.922 1105.87 L 204.935 1146.93 L 163.934 1146.93 C 163.875 1133.26 163.89 1119.59 163.979 1105.92 z"/>
<path transform="translate(0,0)" fill="rgb(0,0,0)" d="M 450.795 1556.14 L 491.537 1556.16 C 491.948 1569.36 491.686 1583.85 491.695 1597.15 C 478.063 1597.33 464.431 1597.42 450.798 1597.44 L 450.795 1556.14 z"/>
<path transform="translate(0,0)" fill="rgb(0,0,0)" d="M 1802.09 982.978 L 1843.09 982.996 L 1843.09 1023.95 L 1802 1024.03 C 1801.89 1010.4 1802.04 996.617 1802.09 982.978 z"/>
<path transform="translate(0,0)" fill="rgb(0,0,0)" d="M 245.702 1310.77 C 259.056 1310.47 273.393 1310.75 286.82 1310.78 L 286.817 1351.31 C 273.339 1351.6 259.135 1351.38 245.601 1351.4 C 245.384 1337.85 245.417 1324.31 245.702 1310.77 z"/>
<path transform="translate(0,0)" fill="rgb(0,0,0)" d="M 737.326 655.25 C 750.832 655.079 764.581 655.202 778.109 655.196 L 778.137 696.202 L 737.248 696.299 C 737.1 682.616 737.125 668.932 737.326 655.25 z"/>
<path transform="translate(0,0)" fill="rgb(0,0,0)" d="M 573.3 450.935 L 614.376 450.794 L 614.613 491.344 L 573.111 491.388 L 573.3 450.935 z"/>
<path transform="translate(0,0)" fill="rgb(0,0,0)" d="M 450.792 696.245 L 491.633 696.327 L 491.634 737.178 L 450.805 737.296 L 450.792 696.245 z"/>
<path transform="translate(0,0)" fill="rgb(0,0,0)" d="M 368.948 1556.22 L 409.564 1556.2 C 409.743 1569.82 409.654 1583.64 409.691 1597.28 L 368.804 1597.44 L 368.948 1556.22 z"/>
<path transform="translate(0,0)" fill="rgb(0,0,0)" d="M 614.495 1597.14 L 655.083 1597.12 L 655.114 1638.3 L 614.328 1638.47 C 614.076 1624.9 614.379 1610.76 614.495 1597.14 z"/>
<path transform="translate(0,0)" fill="rgb(0,0,0)" d="M 614.821 409.467 C 628.243 409.302 641.668 409.302 655.09 409.466 L 655.046 450.887 L 614.54 450.894 C 614.517 437.085 614.611 423.275 614.821 409.467 z"/>
<path transform="translate(0,0)" fill="rgb(0,0,0)" d="M 163.974 1024.1 L 204.992 1023.99 L 204.959 1064.9 L 163.942 1064.81 C 163.823 1051.24 163.834 1037.67 163.974 1024.1 z"/>
<path transform="translate(0,0)" fill="rgb(0,0,0)" d="M 409.626 1310.79 C 423.12 1310.54 437.2 1310.79 450.741 1310.85 C 450.788 1324.37 450.76 1337.89 450.656 1351.4 L 409.549 1351.48 C 409.334 1337.92 409.36 1324.35 409.626 1310.79 z"/>
<path transform="translate(0,0)" fill="rgb(0,0,0)" d="M 369.015 737.27 L 409.686 737.249 L 409.833 778.081 L 368.904 778.169 L 369.015 737.27 z"/>
<path transform="translate(0,0)" fill="rgb(0,0,0)" d="M 737.347 1638.3 C 750.974 1638.19 764.602 1638.23 778.229 1638.4 L 778.173 1679.19 C 764.684 1679.41 750.844 1679.29 737.323 1679.34 C 737.113 1665.66 737.121 1651.98 737.347 1638.3 z"/>
<path transform="translate(0,0)" fill="rgb(0,0,0)" d="M 163.978 1229.01 L 204.948 1228.89 L 204.96 1269.66 C 191.401 1269.88 177.475 1269.74 163.884 1269.76 C 163.814 1256.18 163.845 1242.6 163.978 1229.01 z"/>
<path transform="translate(0,0)" fill="rgb(0,0,0)" d="M 1187.93 286.834 C 1201.28 286.529 1215.49 286.796 1228.91 286.834 L 1228.98 327.271 C 1215.16 327.724 1201.71 327.514 1187.88 327.349 C 1187.7 313.844 1187.71 300.338 1187.93 286.834 z"/>
<path transform="translate(0,0)" fill="rgb(0,0,0)" d="M 286.696 1392.35 L 327.523 1392.41 C 327.821 1405.84 327.565 1420.17 327.56 1433.66 L 286.485 1433.7 C 286.734 1420.04 286.636 1406.04 286.696 1392.35 z"/>
<path transform="translate(0,0)" fill="rgb(0,0,0)" d="M 164.025 1474.76 C 177.444 1474.45 191.501 1474.68 204.973 1474.72 L 204.996 1515.23 C 191.505 1515.76 177.549 1515.46 164.008 1515.36 C 163.879 1501.83 163.885 1488.29 164.025 1474.76 z"/>
<path transform="translate(0,0)" fill="rgb(0,0,0)" d="M 737.362 1474.74 L 778.228 1474.79 L 778.306 1515.39 C 764.602 1515.6 750.895 1515.61 737.191 1515.42 C 737.205 1502.13 736.979 1487.95 737.362 1474.74 z"/>
<path transform="translate(0,0)" fill="rgb(0,0,0)" d="M 532.753 532.306 C 546.031 532.319 559.813 532.144 573.046 532.411 C 573.431 546.011 573.22 559.544 573.099 573.147 C 560.23 573.22 545.354 573.677 532.647 573.311 C 532.277 559.687 532.585 545.942 532.753 532.306 z"/>
<path transform="translate(0,0)" fill="rgb(0,0,0)" d="M 1556.61 1474.6 L 1597.25 1474.71 C 1597.37 1488.22 1597.41 1501.74 1597.35 1515.25 C 1584.03 1515.57 1569.82 1515.36 1556.43 1515.39 C 1556.24 1501.8 1556.3 1488.2 1556.61 1474.6 z"/>
<path transform="translate(0,0)" fill="rgb(0,0,0)" d="M 819.731 1474.5 L 860.23 1474.72 L 860.423 1515.18 C 846.88 1515.49 832.72 1515.33 819.127 1515.37 C 819.06 1506.51 818.448 1482.01 819.731 1474.5 z"/>
<path transform="translate(0,0)" fill="rgb(0,0,0)" d="M 532.767 1679.09 L 573.31 1679.13 C 573.444 1692.68 573.295 1706.47 573.276 1720.05 L 532.581 1720.32 C 532.512 1706.58 532.573 1692.83 532.767 1679.09 z"/>
<path transform="translate(0,0)" fill="rgb(0,0,0)" d="M 819.361 286.862 C 832.649 286.581 846.705 286.806 860.052 286.802 C 860.091 300.006 860.392 314.278 860.044 327.392 L 819.208 327.513 L 819.361 286.862 z"/>
<path transform="translate(0,0)" fill="rgb(0,0,0)" d="M 286.699 737.452 L 327.213 737.272 C 327.442 750.775 327.262 764.679 327.239 778.215 L 286.424 778.276 C 286.396 764.667 286.487 751.059 286.699 737.452 z"/>
</svg>