<svg version="1.1" xmlns="http://www.w3.org/2000/svg" style="display: block;" viewBox="0 0 2048 2048" width="1024" height="1024" preserveAspectRatio="none">
<path transform="translate(0,0)" fill="rgb(255,255,255)" d="M 0 0 L 2048 0 L 2048 2048 L 0 2048 L 0 0 z"/>
<path transform="translate(0,0)" fill="rgb(255,255,255)" d="M 980.157 189.873 C 1065.33 188.578 1155.72 189.109 1241.04 189.85 L 1241.15 278.106 L 1327.5 278.059 C 1328.02 248.785 1327.22 218.835 1327.94 189.902 C 1414.34 188.974 1503.53 189.148 1589.97 189.835 L 1590.05 455.891 L 1418 455.87 C 1388.2 455.87 1357.67 456.231 1327.94 455.85 L 1327.74 366.973 L 1240.92 366.922 C 1240.9 337.683 1240.6 307.96 1240.9 278.764 L 1067.74 278.797 L 1067.84 632.003 C 1182.93 632.004 1301.09 630.553 1415.91 632.09 L 1415.78 719.207 C 1531.38 719.576 1648.49 718.105 1763.88 719.427 C 1763.84 748.044 1764.17 777.467 1763.72 806.012 L 1850.33 805.801 C 1851.5 892.09 1850.91 981.318 1850.67 1067.75 C 1821.73 1067.96 1792.8 1067.98 1763.86 1067.82 L 1763.84 1327.97 C 1734.71 1327.95 1705.16 1328.18 1676.07 1327.79 L 1676.04 1501.97 L 1590.14 1502.03 L 1590.21 1590 L 1328 1590.03 L 1328.05 1677.69 C 1155.45 1680.18 982.014 1676.22 809.334 1677.91 C 779.676 1678.2 749.406 1678.14 719.737 1677.77 C 719.729 1649.71 718.931 1617.65 719.814 1589.93 C 634.023 1591.38 543.903 1590.13 457.796 1590.09 L 457.812 1502.05 L 371.948 1502.08 L 371.919 1327.84 L 283.997 1327.94 L 284.032 1067.97 C 255.507 1067.93 226.314 1068.21 197.849 1067.81 L 197.675 905.243 C 197.691 873.623 196.833 837.276 197.95 805.965 C 226.626 805.759 255.303 805.742 283.98 805.913 C 283.998 777.889 283.373 747.128 284.176 719.331 L 632.201 719.216 C 632.21 692.108 631.29 658.659 632.476 632.069 L 980.027 631.942 L 980.157 189.873 z"/>
<path transform="translate(0,0)" fill="rgb(0,0,0)" d="M 980.157 189.873 C 1065.33 188.578 1155.72 189.109 1241.04 189.85 L 1241.15 278.106 L 1327.5 278.059 C 1328.02 248.785 1327.22 218.835 1327.94 189.902 C 1414.34 188.974 1503.53 189.148 1589.97 189.835 L 1590.05 455.891 L 1418 455.87 C 1388.2 455.87 1357.67 456.231 1327.94 455.85 L 1327.74 366.973 L 1240.92 366.922 C 1240.9 337.683 1240.6 307.96 1240.9 278.764 L 1067.74 278.797 L 1067.84 632.003 C 1182.93 632.004 1301.09 630.553 1415.91 632.09 L 1415.78 719.207 C 1531.38 719.576 1648.49 718.105 1763.88 719.427 C 1763.84 748.044 1764.17 777.467 1763.72 806.012 L 1850.33 805.801 C 1851.5 892.09 1850.91 981.318 1850.67 1067.75 C 1821.73 1067.96 1792.8 1067.98 1763.86 1067.82 L 1763.84 1327.97 C 1734.71 1327.95 1705.16 1328.18 1676.07 1327.79 L 1676.04 1501.97 L 1590.14 1502.03 L 1590.21 1590 L 1328 1590.03 L 1328.05 1677.69 C 1155.45 1680.18 982.014 1676.22 809.334 1677.91 C 779.676 1678.2 749.406 1678.14 719.737 1677.77 C 719.729 1649.71 718.931 1617.65 719.814 1589.93 C 741.824 1589.16 767.487 1589.75 789.732 1589.76 L 920.511 1589.79 L 1327.79 1589.68 L 1327.99 1501.98 C 1385.35 1501 1444.26 1502.18 1501.84 1501.76 L 1502.12 1415.84 L 1589.45 1415.7 C 1589.88 1386.47 1588.9 1356.92 1589.76 1327.71 C 1618.22 1327.2 1647.48 1327.49 1676 1327.45 C 1674.83 1239.35 1676.44 1150.92 1675.8 1062.79 C 1675.6 1035.29 1675.54 1007.45 1676.07 979.973 C 1676.85 951.955 1676.17 920.444 1676.24 892.151 L 1589.86 892.064 L 1502.17 892.153 L 1501.97 806.641 C 1446.3 804.971 1384.07 806.203 1327.92 806.462 L 1327.61 720.005 L 719.927 719.916 C 719.593 748.454 719.909 777.635 719.908 806.227 C 662.143 806.876 603.721 805.466 545.994 806.571 C 545.466 834.747 545.983 863.776 545.742 892.129 L 458.034 891.997 C 429.658 892.042 400.102 891.657 371.826 892.218 C 371.829 918.396 370.663 954.323 371.826 979.912 L 372.071 1327.4 C 400.416 1327.43 429.93 1327.04 458.179 1327.64 L 458.169 1415.9 L 545.999 1415.86 L 546.06 1501.97 L 719.802 1501.84 C 719.966 1531.2 719.97 1560.56 719.814 1589.93 C 634.023 1591.38 543.903 1590.13 457.796 1590.09 L 457.812 1502.05 L 371.948 1502.08 L 371.919 1327.84 L 283.997 1327.94 L 284.032 1067.97 C 255.507 1067.93 226.314 1068.21 197.849 1067.81 L 197.675 905.243 C 197.691 873.623 196.833 837.276 197.95 805.965 C 226.626 805.759 255.303 805.742 283.98 805.913 C 283.998 777.889 283.373 747.128 284.176 719.331 L 632.201 719.216 C 632.21 692.108 631.29 658.659 632.476 632.069 L 980.027 631.942 L 980.157 189.873 z"/>
<path transform="translate(0,0)" fill="rgb(255,255,255)" d="M 1589.98 806.542 C 1647.37 805.719 1705.97 806.295 1763.46 806.3 C 1763.47 863.441 1764.29 922.855 1763.32 979.778 C 1734.66 979.83 1704.64 979.417 1676.07 979.973 C 1676.85 951.955 1676.17 920.444 1676.24 892.151 L 1589.86 892.064 C 1590.48 863.963 1590.06 834.735 1589.98 806.542 z"/>
<path transform="translate(0,0)" fill="rgb(255,255,255)" d="M 284.478 806.324 L 457.813 806.36 C 457.687 832.728 456.665 866.175 458.034 891.997 C 429.658 892.042 400.102 891.657 371.826 892.218 C 371.829 918.396 370.663 954.323 371.826 979.912 C 345.416 978.854 311.716 979.887 284.728 979.923 C 283.961 922.399 285.012 864.055 284.478 806.324 z"/>
<path transform="translate(0,0)" fill="rgb(255,255,255)" d="M 1415.62 278.937 C 1443.88 278.436 1473.74 278.672 1502.04 278.921 L 1501.96 366.248 L 1415.81 366.388 C 1415.43 337.426 1415.67 307.941 1415.62 278.937 z"/>
<path transform="translate(0,0)" fill="rgb(0,0,0)" d="M 371.826 892.218 C 400.102 891.657 429.658 892.042 458.034 891.997 C 458.402 921.298 458.51 950.603 458.36 979.906 C 431.541 980.056 398.221 981.008 371.826 979.912 C 370.663 954.323 371.829 918.396 371.826 892.218 z"/>
<path transform="translate(0,0)" fill="rgb(0,0,0)" d="M 1589.86 892.064 L 1676.24 892.151 C 1676.17 920.444 1676.85 951.955 1676.07 979.973 L 1589.69 980.011 C 1589.28 952.603 1588.94 919.185 1589.86 892.064 z"/>
<path transform="translate(0,0)" fill="rgb(0,0,0)" d="M 776.202 980.36 C 782.614 979.647 797.656 979.767 804.254 979.791 C 827.494 980.024 849.718 977.391 869.596 991.94 C 900.386 1014.47 893.482 1051.74 894.139 1084.85 C 894.305 1093.24 894.357 1102.23 894.087 1110.53 C 892.431 1161.48 909.429 1233.72 837.485 1241.65 C 825.143 1242.76 777.594 1242.69 766.544 1240.13 C 758.738 1238.31 751.385 1234.92 744.938 1230.15 C 732.091 1220.8 721.948 1204.59 720.713 1189.14 C 718.897 1166.42 719.484 1135.63 719.813 1112.81 C 720.079 1094.27 718.26 1047.56 720.992 1031.5 C 722.635 1021.34 726.729 1011.74 732.92 1003.52 C 744.036 988.841 758.47 982.511 776.202 980.36 z"/>
<path transform="translate(0,0)" fill="rgb(0,0,0)" d="M 1210.03 980.35 C 1219.27 979.368 1230.55 980.53 1239.15 979.787 C 1280.36 976.227 1322.01 986.538 1327.31 1034.84 C 1330.03 1059.64 1327.19 1091.49 1327.99 1117.26 C 1328.71 1140.65 1328.69 1167.3 1327.06 1190.8 C 1323.05 1220.16 1300.1 1238.59 1272.24 1241.63 C 1264.72 1242.33 1251.22 1242.09 1243.35 1242.08 C 1220.99 1241.9 1199.45 1244.42 1180.01 1230.98 C 1148.44 1209.16 1154.06 1171.92 1153.8 1138.71 C 1153.71 1128.21 1153.56 1117.59 1153.86 1107.2 C 1155.35 1056.03 1139.67 989.908 1210.03 980.35 z"/>
</svg>