<svg version="1.1" xmlns="http://www.w3.org/2000/svg" style="display: block;" viewBox="0 0 2048 2048" width="1024" height="1024" preserveAspectRatio="none">
<path transform="translate(0,0)" fill="rgb(255,255,255)" d="M 0 0 L 2048 0 L 2048 2048 L 0 2048 L 0 0 z"/>
<path transform="translate(0,0)" fill="rgb(0,0,0)" d="M 1106.31 205.091 L 1822.68 205.107 L 1822.83 239.042 L 1853.38 239.134 C 1853.57 248.881 1853.52 258.98 1853.58 268.755 L 1884.02 268.948 L 1884.16 306.942 L 1914.84 307.014 L 1914.94 651.032 L 1884.23 651.034 L 1884.28 683.244 L 1853.38 683.473 C 1853.19 694.449 1853.3 705.829 1853.26 716.839 L 1822.9 716.88 L 1822.87 747.313 C 1711.52 748.987 1596.39 747.456 1484.79 747.509 L 1484.74 849.816 L 1536 849.852 L 1536.08 1187.83 L 1484.73 1188 L 1484.7 1269.61 C 1468.22 1270.11 1450.32 1269.83 1433.74 1269.89 L 1433.93 1330.87 L 1484.83 1330.99 L 1484.85 1371.98 L 1536.04 1372.05 L 1536.13 1433.29 C 1553.14 1433.27 1570.15 1433.35 1587.16 1433.55 C 1587.37 1450.43 1587.17 1467.68 1587.15 1484.59 L 1638.26 1484.77 L 1638.56 1536 L 1689.61 1535.97 L 1689.83 1576.87 L 1740.91 1576.98 L 1740.96 1638.29 C 1761.41 1638.2 1781.86 1638.26 1802.31 1638.46 L 1802.65 1678.96 L 1843.18 1679.03 L 1843.21 1740.65 C 1876.97 1741.19 1911.79 1740.8 1945.63 1740.87 C 1946.87 1807.57 1945.78 1878.46 1945.79 1945.42 C 1879.13 1946.92 1808.07 1945.62 1740.96 1945.63 L 1740.96 1884.24 C 1727.81 1883.85 1713.48 1884.08 1700.25 1884.04 L 1700.02 1843.07 L 1679.05 1843.15 L 1679.01 1802.24 L 1638.49 1802.31 L 1638.29 1740.97 L 1587.32 1740.94 L 1587.22 1700.04 L 1536.05 1699.96 L 1536.03 1638.71 C 1519.5 1638.03 1501.43 1638.47 1484.77 1638.58 L 1484.66 1576.97 L 1433.51 1576.94 C 1433.18 1563.66 1433.42 1549.38 1433.41 1536.02 L 1372.08 1536.03 L 1372.06 1499.25 L 1372.01 1485 L 1331.07 1484.87 L 1331.2 1433.79 C 1314.37 1433.43 1296.9 1433.69 1280.02 1433.73 L 1280.03 1484.83 L 1177.72 1484.87 C 1177.51 1501.71 1177.78 1519.08 1177.83 1535.96 C 1110.01 1536.7 1040.87 1536.01 972.939 1536.02 L 972.916 1740.98 L 932.079 1740.97 L 932.108 1781.8 L 901.092 1781.96 L 901.093 1812.76 L 870.715 1812.83 L 870.59 1843.19 L 204.891 1843.2 L 204.798 1812.77 C 194.854 1812.45 184.129 1812.66 174.123 1812.66 L 174.101 1781.9 C 164.074 1781.61 153.205 1781.72 143.111 1781.66 L 143.072 1741.02 L 102.652 1740.98 L 102.56 1464.48 C 116.069 1464.5 129.578 1464.43 143.086 1464.27 L 143.155 1433.68 L 174.002 1433.29 L 174.1 1402.94 L 204.604 1402.78 L 204.849 1372.17 C 353.889 1370.3 505.631 1372.35 655.026 1371.89 L 655.083 1351.79 L 634.945 1351.77 L 635.016 1331.32 L 614.546 1331.16 C 614.701 1310.74 614.741 1290.31 614.666 1269.88 L 563.129 1269.69 L 563.226 1188.01 L 512.052 1187.79 L 512.146 850.008 L 563.18 849.747 C 563.049 805.457 563.158 761.167 563.504 716.878 L 614.521 716.694 C 614.865 692.893 614.14 669.166 614.744 645.247 L 665.574 645.16 C 665.452 621.292 665.528 597.423 665.804 573.556 C 698.987 572.764 734.576 573.346 767.975 573.325 L 768.106 512.048 L 870.282 511.907 C 870.206 494.9 870.281 477.892 870.509 460.887 C 921.45 460.169 972.901 461.187 1024 460.538 L 1024.1 307.012 L 1047.38 306.926 C 1047.37 294.284 1047.43 281.642 1047.55 269.001 L 1075.05 268.949 L 1075.16 239.285 L 1106 239.076 C 1106.05 227.747 1106.15 216.419 1106.31 205.091 z"/>
<path transform="translate(0,0)" fill="rgb(255,255,255)" d="M 943.525 573.449 L 1024 573.517 L 1024.03 650.061 L 1046.97 650.105 L 1046.97 684.028 L 1075.16 683.965 L 1075.24 716.625 L 1106.05 716.454 L 1106.18 747.502 C 1126.46 747.394 1146.75 747.401 1167.03 747.522 L 1166.94 921.635 C 1187.57 921.726 1208.21 921.651 1228.85 921.412 L 1228.86 880.999 L 1269.89 880.893 L 1269.94 850.031 L 1300.84 849.828 L 1300.88 819.141 L 1331 819.115 L 1331.08 788.824 C 1344.83 788.556 1358.58 788.547 1372.33 788.796 L 1372.11 808.989 L 1392.7 808.98 L 1392.78 860.461 L 1412.96 860.481 L 1412.97 921.703 L 1433.65 921.71 C 1433.17 979.483 1433.05 1037.26 1433.31 1095.03 L 1413.04 1095.19 L 1412.93 1146.76 L 1392.82 1146.95 L 1392.76 1197.37 L 1372.22 1197.56 C 1371.72 1214.12 1372.09 1232.38 1372.08 1249.06 L 1351.48 1249.15 L 1351.18 1269.25 L 1331.22 1269.44 C 1330.98 1279.51 1331.07 1290.14 1331.02 1300.26 L 1300.96 1300.3 L 1300.69 1330.9 L 1280.02 1330.96 L 1279.98 1351.24 L 1249.45 1351.63 L 1249.14 1372.06 L 1208.08 1372.08 L 1207.98 1392.51 C 1188.12 1392.89 1167.06 1392.57 1147.11 1392.56 L 1146.96 1413.23 L 1108.53 1413.17 L 1095.54 1413.31 L 1095.1 1433.25 L 942.188 1433.31 L 942.019 1413.1 L 901.18 1413.09 L 901.176 1371.96 L 881.005 1371.92 L 880.968 1187.81 C 860.498 1187.52 840.025 1187.53 819.555 1187.83 C 818.986 1200.67 819.287 1215.71 819.25 1228.72 L 778.188 1228.81 L 778.133 1259.16 L 747.186 1259.34 L 747 1300.03 L 716.912 1300.18 L 716.957 1269.46 L 696.852 1269.3 L 696.591 1249.07 L 675.996 1249.11 L 676.007 1197.57 L 655.085 1197.41 L 655.064 1146.92 L 635.233 1146.76 L 635.154 1095.3 L 614.69 1095.16 L 614.72 921.62 L 635.15 921.225 L 635.086 860.332 L 655.065 860.366 L 655.147 809.006 L 675.935 809.044 L 676.016 778.285 L 696.543 778.12 L 696.661 747.4 L 716.958 747.383 L 716.991 716.967 L 747.748 717.003 L 747.751 686.3 C 757.591 686.017 768.485 686.275 778.406 686.3 L 778.429 655.186 C 784.878 655.311 792.39 656.183 798.025 653.549 C 799.084 651.414 798.698 650.384 798.406 648.072 L 800.399 646.069 C 806.427 644.457 822.252 645.156 829.443 645.23 L 829.176 614.36 C 846.319 614.11 863.803 614.242 880.976 614.194 L 880.977 593.929 L 942.203 593.714 C 942.097 589.234 941.24 576.537 943.525 573.449 z"/>
<path transform="translate(0,0)" fill="rgb(255,255,255)" d="M 1126.1 269.578 L 1802.35 269.749 L 1802.5 307.314 L 1843.24 307.397 L 1843.06 650.335 L 1802.52 650.399 C 1802.27 661.167 1802.36 672.424 1802.29 683.234 C 1760.04 684.269 1715.89 683.627 1673.5 683.6 L 1372.36 683.801 C 1372.09 694.666 1372.13 705.969 1372.03 716.871 L 1331.3 716.969 C 1331.08 728.112 1331.16 739.614 1331.1 750.788 L 1300.67 750.749 C 1300.27 761.307 1300.42 773.269 1300.34 783.94 L 1269.66 783.995 C 1269.24 795.061 1269.41 807.601 1269.31 818.78 L 1228.87 818.68 L 1228.82 683.745 C 1194.69 683.558 1160.56 683.584 1126.43 683.823 C 1126.19 673.008 1126.26 661.752 1126.18 650.899 L 1089.77 650.688 L 1089.67 307.493 C 1101.04 307.042 1114.56 307.32 1126.09 307.282 L 1126.1 269.578 z"/>
<path transform="translate(0,0)" fill="rgb(255,255,255)" d="M 778.391 1290.81 C 792.033 1290.62 805.676 1290.62 819.318 1290.83 L 819.229 1433.56 L 870.673 1433.74 L 870.626 1474.81 L 901.072 1474.78 L 901.045 1740.69 L 870.327 1740.89 L 870.164 1761.2 L 849.596 1761.21 L 849.234 1781.39 L 292.571 1781.46 L 225.657 1781.44 L 225.503 1761.34 L 204.827 1761.26 L 204.657 1740.91 L 174.566 1740.66 L 174.418 1474.96 L 204.913 1474.84 L 204.953 1454.12 L 225.545 1454.14 C 225.728 1447.79 225.406 1440.17 225.291 1433.72 L 676.116 1433.51 L 676.163 1392.78 L 707.016 1392.85 L 706.98 1362.15 L 747.65 1362.01 L 747.536 1331.52 C 757.583 1331.22 768.288 1331.27 778.386 1331.16 L 778.391 1290.81 z"/>
<path transform="translate(0,0)" fill="rgb(0,0,0)" d="M 266.533 818.95 L 307.07 818.97 L 307.19 839.266 L 328.056 839.401 C 328.082 858.592 329.349 903.579 327.579 920.725 C 325.265 922.265 320.52 921.885 317.445 921.927 L 317.634 941.761 C 331.294 942.034 425.421 940.762 430.014 943.184 C 429.817 946.55 429.451 947.676 431.059 950.654 C 434.93 953.265 435.866 952.528 440.953 952.877 C 440.989 960.922 441.608 985.855 440.459 992.292 C 437.654 993.782 433.499 993.371 430.141 993.366 L 430.358 1044.5 C 426.123 1044.54 425.175 1044.49 421.113 1045.42 C 416.868 1052.54 422.752 1081.56 419.53 1094.16 C 416.497 1096.03 413.916 1095.51 409.951 1095.7 L 410.024 1136.75 L 389.553 1136.88 L 389.375 1157.14 L 368.5 1157.13 L 225.536 1157.15 L 225.446 1136.61 L 184.426 1136.54 C 183.707 1081.45 183.314 1017.46 184.597 962.614 L 204.957 962.593 L 205.033 941.993 L 225.518 942.003 C 225.437 931.729 225.481 921.454 225.649 911.181 L 245.868 911 L 245.964 890.907 L 266.216 890.699 C 266.164 866.782 266.27 842.865 266.533 818.95 z"/>
<path transform="translate(0,0)" fill="rgb(0,0,0)" d="M 1658.93 890.999 L 1822.78 890.942 L 1822.78 911.04 L 1863.59 911.088 C 1865.05 967.158 1863.76 1029.1 1863.76 1085.5 L 1843.03 1085.58 L 1842.94 1105.98 L 1822.83 1105.98 L 1822.95 1136.75 L 1802.34 1136.87 L 1802.31 1157.53 L 1781.59 1157.53 L 1781.84 1209.98 L 1781.76 1228.8 L 1740.88 1228.82 L 1740.8 1208.23 L 1719.97 1208.4 L 1719.9 1158.24 C 1719.87 1149.5 1719.37 1135.25 1720.46 1127.31 C 1722.76 1125.58 1727.37 1126.07 1730.54 1126.06 L 1730.47 1105.96 L 1659.15 1106.01 C 1647.16 1106.01 1630.84 1106.49 1619.17 1105.55 C 1617.43 1103.15 1618.2 1100.42 1617.86 1096.43 L 1616.17 1095.26 C 1613.07 1095.28 1610.35 1095.74 1607.88 1094.11 C 1607 1087.86 1607.58 1062.94 1608.03 1056.1 C 1610.48 1053.89 1611.75 1054.65 1616.03 1054.43 C 1616.55 1054.05 1617.07 1053.68 1617.6 1053.3 C 1619.05 1040.04 1615.95 1017.05 1618.44 1004.74 C 1621.82 1001.52 1623.16 1005.06 1627.59 1002.4 C 1629.71 991.031 1625.87 966.445 1628.59 953.688 C 1631.24 951.988 1634.98 952.382 1638.28 952.335 L 1638.79 911.153 L 1658.91 910.969 L 1658.93 890.999 z"/>
<path transform="translate(0,0)" fill="rgb(0,0,0)" d="M 83.464 952.471 L 164.035 952.545 C 164.071 1018.69 165.319 1090.16 163.909 1156.02 L 162.119 1157.41 C 135.362 1157.29 108.605 1157.33 81.8484 1157.54 C 81.7037 1108.11 81.4248 1008.02 82.1916 954.013 C 82.6157 953.499 83.0398 952.985 83.464 952.471 z"/>
<path transform="translate(0,0)" fill="rgb(0,0,0)" d="M 1884.11 890.954 L 1966.3 890.924 L 1966.42 1095.15 C 1939.31 1095.66 1911.19 1095.36 1884.01 1095.43 L 1884.11 890.954 z"/>
</svg>