<svg version="1.1" xmlns="http://www.w3.org/2000/svg" style="display: block;" viewBox="0 0 2048 2048" width="958" height="958" preserveAspectRatio="none">
<path transform="translate(0,0)" fill="rgb(255,255,255)" d="M 0 0 L 2048 0 L 2048 2048 L 0 2048 L 0 0 z"/>
<path transform="translate(0,0)" fill="rgb(0,0,0)" d="M 1422.13 223.292 L 1755.67 223.309 L 1755.79 559.38 C 1737.06 559.703 1718.33 559.786 1699.6 559.628 C 1699.03 541.627 1699.33 521.986 1699.24 503.856 L 1644.36 503.954 L 1644.4 447.991 L 1588.62 447.923 C 1588.21 465.954 1588.66 485.611 1588.7 503.769 C 1570.55 504.141 1551.48 503.861 1533.26 503.879 L 1533.23 559.45 C 1515.84 560.177 1495.64 559.718 1478.05 559.74 L 1478.08 615.871 L 1422.39 615.945 C 1422 634.369 1422.21 653.591 1422.14 672.081 L 1367.22 672.124 L 1367.2 727.862 L 1312.07 727.97 L 1312.05 783.897 L 1256.12 784.003 L 1256.09 839.462 L 1200.98 839.72 L 1200.94 783.877 C 1182.73 783.558 1163.68 783.865 1145.4 783.887 L 1145.23 727.917 L 1089.34 727.836 L 1089.59 672.154 C 1071.44 671.942 1053.02 672.102 1034.85 672.093 L 1034.85 657.25 L 1034.69 616.048 C 1016.2 615.865 997.704 615.861 979.21 616.035 L 979.152 672.019 L 924.149 672.105 L 924.125 727.778 L 869.016 727.986 L 869.014 783.945 L 813.516 784.012 L 813.405 839.633 L 757.96 839.617 L 757.999 895.32 C 798.222 897.265 851.25 895.689 892.664 895.676 L 1147.7 895.679 L 1966.03 895.804 L 1966.02 968.946 L 2034.66 969.049 L 2034.73 1295.03 C 2011.83 1294.92 1988.94 1295.03 1966.04 1295.38 L 1966.03 1364.51 L 88.5101 1364.51 C 88.6739 1340.61 88.6727 1316.71 88.5066 1292.81 L 13.2555 1292.95 L 13.2797 968.933 L 88.7914 968.921 C 88.5544 944.578 88.5353 920.234 88.7342 895.892 C 209.739 894.541 331.611 896.526 452.678 895.693 C 498.624 895.378 545.162 896.295 591.045 895.412 L 591.109 839.507 C 609.518 839.308 628.206 839.501 646.638 839.527 L 646.903 783.64 L 702.2 783.535 L 702.357 727.669 L 757.604 727.427 L 757.839 671.017 L 813.389 670.877 C 813.342 652.435 813.419 633.991 813.622 615.549 L 868.662 615.727 L 868.582 559.325 C 886.745 558.996 905.449 559.17 923.656 559.117 L 923.77 502.946 L 978.537 502.949 L 978.825 447.39 C 997.387 447.305 1015.95 447.349 1034.51 447.521 C 1035.13 465.327 1034.84 484.971 1034.95 502.921 L 1089.68 502.959 L 1089.84 559.07 C 1108.27 559.291 1127.01 559.14 1145.47 559.168 C 1145.74 577.898 1145.63 596.926 1145.7 615.682 L 1201.02 615.735 L 1201.31 670.914 L 1255.98 670.902 L 1256.04 615.608 L 1311.63 615.538 C 1311.6 596.767 1311.7 577.997 1311.93 559.228 L 1366.96 559.132 L 1367.04 502.945 L 1422.04 502.929 L 1422.18 447.144 L 1478.02 447.196 L 1478.17 391.125 L 1533.19 390.985 L 1533.25 335.174 L 1478.04 335.283 L 1477.99 279.851 C 1460.15 279.243 1440.12 279.661 1422.12 279.639 L 1422.13 223.292 z"/>
<path transform="translate(0,0)" fill="rgb(255,255,255)" d="M 88.7914 968.921 L 1136.04 969.013 L 1407.55 969.011 C 1454.39 969.011 1502.37 968.489 1549.14 969.077 C 1549.01 1075.97 1550.13 1184.35 1548.93 1291.05 L 88.887 1291.24 L 88.9181 1080.97 C 88.9216 1044.2 89.4973 1005.58 88.7914 968.921 z"/>
<path transform="translate(0,0)" fill="rgb(255,255,255)" d="M 1700.04 1010.06 L 1809.14 1010.16 C 1809.08 1023.45 1809.67 1040.62 1808.75 1053.44 C 1773.37 1054.49 1735.56 1053.81 1699.83 1054.1 C 1699.75 1039.42 1699.82 1024.74 1700.04 1010.06 z"/>
<path transform="translate(0,0)" fill="rgb(255,255,255)" d="M 1699.7 1165.72 L 1809.8 1165.69 L 1809.8 1208.45 C 1773.19 1208.7 1736.59 1208.72 1699.99 1208.52 L 1699.7 1165.72 z"/>
<path transform="translate(0,0)" fill="rgb(255,255,255)" d="M 1655.37 1056.86 L 1698.68 1056.8 C 1698.63 1092.08 1697.85 1130.26 1698.91 1165.31 L 1655.26 1165.31 L 1655.37 1056.86 z"/>
<path transform="translate(0,0)" fill="rgb(255,255,255)" d="M 1813.31 1055.74 C 1827.22 1055.49 1842.21 1055.86 1856.21 1055.94 C 1856.61 1090.35 1856.3 1125.2 1856.27 1159.65 L 1813.6 1159.44 C 1812.66 1125.89 1813.33 1089.5 1813.31 1055.74 z"/>
<path transform="translate(0,0)" fill="rgb(255,255,255)" d="M 1867.91 1222.19 L 1918.88 1222.3 L 1918.75 1280.05 L 1867.97 1280.06 L 1867.91 1222.19 z"/>
<path transform="translate(0,0)" fill="rgb(255,255,255)" d="M 1831.38 1185.79 C 1843.58 1185.67 1855.78 1185.63 1867.98 1185.65 L 1867.91 1222.19 L 1831.38 1222.09 C 1831.35 1210.46 1831.03 1197.3 1831.38 1185.79 z"/>
<path transform="translate(0,0)" fill="rgb(0,0,0)" d="M 1758.69 1548.36 C 1804.68 1547.42 1853.77 1548.26 1899.99 1548.28 L 1899.99 1587.3 C 1913.28 1587.23 1928.04 1586.86 1941.19 1587.47 L 1941.08 1785.81 L 1899.97 1785.95 C 1900.1 1798.75 1900.05 1811.54 1899.82 1824.33 C 1853.58 1823.45 1804.86 1824.18 1758.44 1824.16 L 1758.7 1785.81 L 1716.81 1785.87 L 1717.03 1588.07 L 1758.38 1588.11 C 1758.25 1574.86 1758.35 1561.61 1758.69 1548.36 z"/>
<path transform="translate(0,0)" fill="rgb(255,255,255)" d="M 1778.1 1601.51 C 1813.71 1601.08 1849.33 1601.12 1884.93 1601.62 C 1884.78 1617.34 1885.65 1767.24 1883.99 1770.14 L 1880.25 1770.44 L 1773.58 1770.55 C 1772.7 1725.17 1773.54 1651.27 1773.29 1603.4 C 1773.67 1602.88 1774.06 1602.36 1774.44 1601.85 L 1778.1 1601.51 z"/>
<path transform="translate(0,0)" fill="rgb(0,0,0)" d="M 692.211 1548.23 L 833.144 1548.29 L 833.081 1587.11 L 873.944 1587.1 C 874.743 1652.73 873.936 1720.05 873.917 1785.82 L 833.082 1785.91 C 833.154 1797.79 833.585 1812.6 832.857 1824.18 L 692.088 1824.27 L 692.317 1785.95 L 649.799 1785.73 C 648.893 1721.48 648.956 1651.38 649.864 1587.16 L 692.039 1587.17 L 692.211 1548.23 z"/>
<path transform="translate(0,0)" fill="rgb(255,255,255)" d="M 710.142 1601.51 C 746.07 1601.09 782.002 1601.09 817.93 1601.52 L 817.849 1723.18 C 817.844 1730.82 818.335 1765.3 817.266 1769.78 L 815.505 1770.48 L 706.307 1770.42 C 706.021 1757.5 705.665 1604.86 706.989 1602.03 L 710.142 1601.51 z"/>
<path transform="translate(0,0)" fill="rgb(0,0,0)" d="M 378.11 1548.44 C 449.033 1546.93 525.98 1548.25 597.165 1548.32 L 597.128 1601.34 C 545.25 1601.24 485.702 1599.88 434.341 1601.83 L 434.625 1658.06 L 555.915 1658.05 L 555.942 1710.76 L 436.816 1710.85 L 434.876 1711.91 C 433.656 1718.76 434.5 1760.84 434.556 1770.32 L 600.386 1770.22 C 600.566 1788.1 600.373 1806.29 600.36 1824.2 L 377.988 1824.12 C 378.002 1733.07 376.64 1639.2 378.11 1548.44 z"/>
<path transform="translate(0,0)" fill="rgb(0,0,0)" d="M 1213.15 1548.33 C 1271.64 1547.57 1332.71 1548.09 1391.25 1548.4 C 1391.62 1565.85 1391.32 1583.9 1391.26 1601.39 C 1341.14 1601.09 1277.68 1599.82 1228.15 1601.73 L 1228.42 1770.57 C 1265.32 1770.36 1302.22 1770.36 1339.13 1770.56 L 1339.1 1710.83 C 1319.33 1710.56 1298.89 1710.79 1279.06 1710.79 L 1279.12 1671.4 L 1279.09 1658.07 L 1395 1658.04 L 1394.97 1824.2 L 1213.08 1824.16 L 1213.09 1785.76 L 1172.12 1785.8 C 1172.61 1720 1171.61 1653.87 1172.44 1588.11 L 1213.02 1588.25 C 1212.97 1574.95 1213.02 1561.64 1213.15 1548.33 z"/>
<path transform="translate(0,0)" fill="rgb(0,0,0)" d="M 1445.24 1548.31 C 1516.53 1547.08 1593.29 1547.89 1664.81 1548.41 C 1664.88 1566.07 1664.81 1583.72 1664.61 1601.37 C 1611.19 1601.22 1554.49 1600.34 1501.3 1601.62 C 1501.17 1620.29 1501.46 1639.36 1501.54 1658.07 L 1622.55 1657.99 C 1622.64 1675.61 1622.59 1693.23 1622.41 1710.86 L 1504.75 1710.8 L 1502.27 1711.37 C 1500.16 1715.43 1501.36 1762.82 1501.43 1770.54 C 1556.16 1769.78 1612.18 1770.3 1666.98 1770.27 L 1667.05 1824.22 L 1445.08 1824.23 L 1445.24 1548.31 z"/>
<path transform="translate(0,0)" fill="rgb(0,0,0)" d="M 146.177 1548.3 L 288.623 1548.36 L 288.577 1580.62 C 300.549 1580.92 313.376 1580.73 325.416 1580.76 L 325.469 1621.72 L 270.863 1621.83 L 270.965 1601.59 C 235.051 1601.13 197.011 1600.74 161.189 1601.69 L 161.201 1658.07 L 288.784 1658 L 288.621 1692.86 L 327.856 1692.74 L 327.777 1787.85 L 288.836 1787.94 C 288.702 1795.17 290.048 1819.03 287.841 1823.74 L 285.25 1824.23 L 145.724 1824.28 L 146.046 1792.27 C 133.567 1791.8 119.072 1792.13 106.439 1792.14 C 106.319 1777.17 106.394 1762.19 106.664 1747.22 L 161.125 1747.19 L 161.215 1770.47 L 270.832 1770.44 L 270.913 1710.73 C 229.699 1710.24 187.239 1710.81 145.931 1710.86 L 146.069 1677.33 C 132.749 1676.87 117.769 1677.18 104.326 1677.17 C 104.455 1646.29 103.752 1613.95 104.657 1583.22 L 146.01 1583.05 L 146.177 1548.3 z"/>
<path transform="translate(0,0)" fill="rgb(0,0,0)" d="M 1078.47 1546.5 L 1113.87 1546.58 L 1113.93 1643.99 L 1069.06 1644.02 C 1068.92 1662.66 1069.23 1681.75 1069.33 1700.42 C 1054.72 1700.21 1040.11 1700.27 1025.51 1700.59 L 1025.74 1755.59 L 982.019 1755.79 L 982.053 1824.19 L 966.817 1824.2 L 929.568 1824.19 C 929.069 1791.34 929.249 1755.86 929.668 1723.02 L 973.513 1722.8 C 973.443 1704.2 973.498 1685.6 973.679 1667 L 1016.47 1667 C 1016.43 1649.05 1016.54 1631.09 1016.78 1613.13 L 1061.29 1613.08 L 1061.27 1546.71 L 1078.47 1546.5 z"/>
</svg>