<svg version="1.1" xmlns="http://www.w3.org/2000/svg" style="display: block;" viewBox="0 0 2048 2048" width="1024" height="1024" preserveAspectRatio="none">
<path transform="translate(0,0)" fill="rgb(35,31,22)" d="M 0 0 L 1661.82 0 L 2048 0 L 2048 2048 L 0 2048 L 0 1735.1 L 0 0 z"/>
<path transform="translate(0,0)" fill="rgb(19,16,8)" d="M 1661.82 0 L 2048 0 L 2048 2048 L 0 2048 L 0 1735.1 C 0.379477 1731.88 0.39132 1731.89 1.59313 1728.87 L 2.48012 1729.37 C 3.57879 1737.11 3.05249 1753.97 3.04358 1762.77 L 3.0027 1826.75 L 3 2045 L 999.212 2045 L 1325.99 2044.99 C 1383.3 2045 1444.1 2046.18 1500.97 2044.79 C 1499.6 2042.3 1499.92 2043.6 1500.41 2040.74 C 1497.25 2037.83 1494.26 2039.44 1491.44 2036.57 C 1488.6 2033.68 1485.94 2027.06 1489.48 2023.98 L 1491.75 2026.67 L 1492.48 2026.03 C 1493.01 2022.01 1494.5 2016.76 1492.96 2013.8 C 1489.06 2011.62 1491 2011.93 1487.1 2012.09 C 1485.74 2014.72 1485.59 2024.85 1484.79 2029.45 C 1478.47 2035.34 1460.31 2042.2 1453.33 2033.93 C 1454.41 2031.37 1454.18 2030.94 1456.05 2029.37 L 1459.67 2033.2 L 1460.66 2033.16 C 1460.84 2018.69 1466.16 2028.36 1470.89 2020.75 C 1471.51 2020.96 1472.12 2021.17 1472.74 2021.38 L 1472.85 2021.22 C 1469.4 2020.37 1469.31 2020.49 1466.2 2018.49 C 1464.77 2014.72 1465.87 2012.82 1466.66 2008.37 C 1464.14 2004.9 1462.04 2005.02 1460.43 2000.49 L 1461.41 1998.58 C 1469.88 1998.12 1462.97 1998.38 1468.76 1994.14 C 1478.78 2000.69 1473.13 1991.46 1480.58 1988.29 C 1483.34 1989.85 1482.08 1988.93 1483.94 1991.98 C 1483.99 1994.58 1483.84 1994.82 1484.4 1997.3 L 1487.07 1998.62 C 1489.49 1996.86 1490.8 1992.21 1493.79 1988.44 L 1496.56 1988.56 L 1497.27 1989.68 C 1489.79 2000.21 1502.67 2000.83 1504.6 2005.72 C 1506.79 2011.27 1492.63 2029.18 1502.61 2036.99 C 1511.72 2032.35 1510.13 2030.39 1515.91 2023.35 C 1517.47 2023.1 1519.03 2022.84 1520.6 2022.59 C 1522.54 2020.71 1519.55 2002.64 1520.15 2002.1 C 1528.81 1994.39 1537.28 1986.11 1540.31 1974.46 C 1541.63 1969.39 1538.66 1966.36 1538.04 1961.18 L 1539.3 1960.75 C 1540.66 1962.42 1552.31 1973.3 1553.42 1972.57 C 1561.1 1967.52 1568.41 1962.99 1577.1 1959.9 C 1588.05 1956.02 1591.81 1966.51 1602.54 1964.79 C 1609.12 1962.37 1611.61 1953.1 1618.88 1952.25 C 1628.35 1951.15 1636.74 1947.01 1646.13 1949.98 C 1654.9 1952.76 1662.37 1949.67 1669.9 1945.5 C 1679.28 1940.29 1684.59 1947.54 1693.36 1949.35 C 1699.31 1950.15 1713.87 1947.19 1719.97 1949.96 C 1720.88 1950.37 1722.02 1951.04 1723.5 1951.64 L 1724.55 1949.67 C 1723.75 1946.76 1723.47 1946.46 1723.62 1943.51 C 1726.32 1941.45 1729.01 1940.08 1729.82 1936.99 C 1728.21 1933.84 1729.38 1934.87 1726.56 1933.42 C 1725.18 1935.46 1725.88 1934.89 1723.74 1935.98 L 1721.53 1934.11 L 1721.47 1932.84 C 1727.33 1927.64 1754.55 1930.39 1765.69 1927.73 C 1762.08 1926.73 1719.85 1928.46 1712.92 1928.6 L 1604.93 1929.91 C 1427.9 1931.99 1250.86 1933.06 1073.81 1933.13 L 927.952 1933.08 C 921.816 1933.05 881.886 1933.41 877.77 1932.53 C 908.815 1931.83 941.94 1932.36 973.13 1932.35 L 1170.04 1932.23 L 1656.63 1927.53 L 1833.5 1925.9 L 1910.55 1925.2 C 1936.56 1924.8 1968.64 1930.11 1972.52 1892.54 C 1974.69 1871.49 1974.11 1848.38 1974.22 1827.15 L 1974.44 1712.83 L 1976.57 1371.91 C 1978.69 1388.31 1976.87 1417.58 1977.07 1434.7 C 1978.02 1515.55 1975.61 1596.41 1976.1 1677.24 C 1976.15 1685.73 1974.41 1737.54 1978.03 1741.51 C 1978.15 1738.4 1977.68 1732.75 1979.62 1730.29 C 1982.43 1726.72 1979.82 1725.51 1982.64 1721.7 C 1983.72 1723 1984.68 1724.32 1985.57 1725.75 C 1989.78 1710.11 1978.42 1678.22 1989.78 1666.52 C 1993.03 1664.92 1996.76 1665.58 2000.48 1665.79 C 2009.44 1660.78 2008 1657.81 2013.2 1650.32 C 2013.92 1649.27 2017.34 1650.58 2019.87 1646.86 C 2018.69 1643.65 2018.61 1643.9 2015.91 1641.69 C 2009.4 1640.42 2006.79 1645.38 2001.33 1642.77 C 1999.94 1636.74 1999.76 1631.04 1999.32 1624.87 L 1993.01 1621.9 L 1992.95 1620.47 L 1994.43 1619.43 C 1998.5 1619.2 1998.59 1620.09 2002.24 1621.13 C 2003.13 1620.61 2007.5 1617.46 2007.81 1617.29 C 2014.36 1613.88 2012.97 1608 2014.59 1605.37 L 2020.22 1608.65 L 2021.82 1607.25 L 2023.34 1608.46 C 2018.35 1614.99 2020.7 1617.96 2026.12 1622.83 L 2026.05 1624.06 C 2024.52 1625.63 2023.46 1626.83 2022.06 1628.5 C 2022.36 1631.18 2021.76 1630.1 2023.82 1631.76 C 2025.74 1630.85 2027.68 1629.98 2029.64 1629.16 C 2033.84 1631.92 2038.4 1635.4 2042.5 1638.39 L 2044.65 1637.97 C 2045.83 1633.27 2043.73 1629.18 2042 1624.6 C 2043.3 1622.94 2045.37 1620.3 2045.3 1618.14 C 2044.86 1603.29 2044.96 1588.42 2044.98 1573.56 L 2044.92 1459.95 L 2044.97 1112.57 L 2045 3 L 1746.62 2.96877 L 1684.35 2.8691 C 1676.3 2.87511 1662.97 4.29589 1655.86 2.507 L 1656.98 1.34003 L 1660.98 1.37875 L 1661.82 0 z"/>
<path transform="translate(0,0)" fill="rgb(3,5,6)" d="M 264.573 239 C 658.066 207.265 1053.17 200.411 1447.53 218.479 C 1555.88 223.388 1674.53 228.776 1782.53 239.107 L 1783.56 239.257 C 1803.25 241.951 1823.76 239.695 1843.45 243.262 C 1860.89 246.422 1861.78 256.923 1871.54 266.851 C 1882.88 291.106 1876.06 317.153 1881.11 340.026 C 1881.54 335.631 1882.86 315.438 1883.61 312.898 C 1884.1 326.16 1883.27 337.488 1883.13 350.504 C 1882.75 385.522 1889.91 419.518 1891.98 454.23 C 1892.5 462.822 1889.84 472.13 1890.2 480.765 C 1892.89 532.665 1895.73 584.973 1897.65 636.875 C 1903.09 791.957 1905.88 947.12 1906.04 1102.3 C 1903.41 1311.84 1894.6 1521.27 1879.63 1730.29 C 1878.32 1728.25 1878.74 1725.52 1878.79 1722.78 L 1878.64 1723.77 C 1875.02 1749.12 1879.73 1775.74 1864.67 1798.22 C 1842.4 1831.46 1808.58 1828.08 1773.13 1831.38 C 1737.84 1834.81 1702.52 1838.01 1667.18 1840.96 C 1193.66 1878.63 717.777 1875.61 244.768 1831.94 L 243.655 1833.11 C 232.924 1833.09 224.095 1833.37 213.5 1833.49 C 209.974 1829.56 203.793 1825.97 199.14 1823.28 C 180.062 1812.23 176.499 1803.07 166.835 1784.67 C 167.879 1783.58 168.789 1782.88 168.514 1780.98 C 166.671 1768.25 162.342 1746.92 164.878 1734.59 C 133.162 1275.07 130.478 814.011 156.844 354.157 C 161.047 326.301 154.74 288.364 168.763 264.123 C 187.481 231.767 233.968 245.992 264.573 239 z"/>
<path transform="translate(0,0)" fill="rgb(19,16,8)" d="M 1881.11 340.026 C 1881.54 335.631 1882.86 315.438 1883.61 312.898 C 1884.1 326.16 1883.27 337.488 1883.13 350.504 C 1882.75 385.522 1889.91 419.518 1891.98 454.23 C 1892.5 462.822 1889.84 472.13 1890.2 480.765 C 1892.89 532.665 1895.73 584.973 1897.65 636.875 C 1903.09 791.957 1905.88 947.12 1906.04 1102.3 C 1903.41 1311.84 1894.6 1521.27 1879.63 1730.29 C 1878.32 1728.25 1878.74 1725.52 1878.79 1722.78 C 1901.42 1412.4 1908.77 1101.1 1900.83 790 C 1898.41 693.602 1894.75 597.239 1889.84 500.936 C 1887.16 448.689 1882.4 392.084 1881.11 340.026 z"/>
<path transform="translate(0,0)" fill="rgb(19,16,8)" d="M 213.5 1833.49 C 209.974 1829.56 203.793 1825.97 199.14 1823.28 C 180.062 1812.23 176.499 1803.07 166.835 1784.67 C 167.879 1783.58 168.789 1782.88 168.514 1780.98 C 166.671 1768.25 162.342 1746.92 164.878 1734.59 C 171.484 1765.76 162.341 1798.29 195.42 1819.59 C 208.257 1827.85 217.89 1830.16 233.207 1830.47 C 236.31 1830.62 241.817 1830.76 244.768 1831.94 L 243.655 1833.11 C 232.924 1833.09 224.095 1833.37 213.5 1833.49 z"/>
<path transform="translate(0,0)" fill="rgb(245,248,249)" d="M 245.147 279.715 C 254.848 279.011 265.08 279.823 274.692 279.13 C 292.363 277.992 310.095 276.416 327.796 275.9 C 343.918 275.43 359.718 276.313 375.783 274.423 C 380.657 273.85 385.882 273.795 390.803 273.35 C 421.01 270.62 451.503 272.297 481.744 271.429 L 657.916 267.417 C 678.609 266.776 698.746 264.131 720.549 263.823 L 1046.16 261.366 C 1082.16 261.365 1413.49 263.238 1423.69 269.731 C 1457.54 270.577 1493.28 272.254 1526.91 272.049 C 1532.22 271.492 1536.77 271.655 1542.07 271.819 C 1569.91 272.678 1597.72 271.339 1625.56 272.44 C 1640.24 273.02 1654.85 274.666 1669.5 275.251 L 1764.64 279.583 C 1772.56 279.894 1804.25 278.469 1805.68 282.793 C 1809.01 292.795 1808.39 339.268 1809.01 350.152 C 1822.72 605.691 1827.97 861.613 1824.75 1117.5 C 1824.3 1174.21 1825.26 1283.28 1823.44 1334.04 C 1821.88 1377.17 1810.34 1765.98 1805.35 1771.07 C 1794.58 1776.07 1784.16 1775.15 1772.7 1775.89 C 1675.17 1782.15 1577.46 1786.88 1479.72 1788.31 C 1467.89 1788.49 1454.41 1787.51 1442.48 1786.85 C 1409.6 1786.92 1377.01 1788.25 1344.16 1788.96 C 1289.01 1790.04 1233.87 1790.8 1178.72 1791.24 C 1171.13 1798.38 829.033 1793.79 787.691 1793.5 L 649.999 1791.2 C 634.088 1790.87 618.119 1788.82 602.586 1788.66 C 563.557 1788.26 524.659 1788.34 485.621 1787.36 C 420.34 1785.49 355.106 1782.2 289.967 1777.5 C 282.093 1776.93 255.249 1777.73 251.119 1774.04 C 251.257 1749.44 247.896 1710.57 246.654 1684.75 C 243.886 1627.29 241.567 1569.82 239.696 1512.32 C 238.091 1510.17 237.427 1504.16 236.51 1500.7 L 236.389 1502.02 C 231.619 1487.6 235.048 1476.3 236.522 1461.95 C 236.896 1458.3 236.8 1451.3 237.126 1446.76 C 237.211 1426.66 236.174 1404.84 235.7 1384.61 C 233.966 1380.04 235.162 1366.28 233.539 1364.74 L 231.769 1366.3 C 228.349 1354.86 228.198 1321.54 229.967 1308.97 C 234.241 1278.58 230.582 1249.11 231.309 1218.45 C 231.534 1208.99 229.14 1198.42 229.064 1187.98 L 229.603 1189.91 L 229.576 1174.44 L 228.67 1181.83 C 226.926 1174.53 228.252 1164.49 228.987 1157 L 229.114 1169.03 C 230.532 1164.44 231.361 1142.46 230.008 1138.25 L 229.253 1138.73 C 228.994 1144.25 228.9 1148.54 227.857 1154.02 L 227.319 1153.91 C 226.965 1148.45 225.492 1130.28 227.577 1126.33 C 228.681 1128.33 228.321 1127.59 229.203 1129.51 L 229.778 1130.8 L 230.593 1129.95 C 230.545 1125.47 229.422 1098.88 228.777 1096.3 L 226.797 1096.52 L 225.761 1095.09 C 224.002 1077.66 226.103 1056.17 226.209 1038.48 L 226.431 961.003 C 226.504 942.166 225.584 925.887 228.563 906.951 C 229.712 899.647 225.286 882.333 226.538 873.274 C 226.977 870.097 225.853 859.961 225.903 855.583 L 229.691 636.466 C 229.972 623.644 230.571 611.803 231.672 599.018 C 232.177 592.627 229.506 583.059 230.172 576.955 C 233.531 546.182 232.173 515.243 234.812 484.342 C 235.366 477.863 237.347 466.218 237.288 460.616 C 236.945 428.5 238.999 397.151 239.834 365.129 C 240.135 353.213 242.79 341.246 243.268 329.528 C 243.951 312.804 244.125 296.386 245.147 279.715 z"/>
<path transform="translate(0,0)" fill="rgb(3,43,87)" d="M 245.147 279.715 C 254.848 279.011 265.08 279.823 274.692 279.13 C 292.363 277.992 310.095 276.416 327.796 275.9 C 343.918 275.43 359.718 276.313 375.783 274.423 C 380.657 273.85 385.882 273.795 390.803 273.35 C 421.01 270.62 451.503 272.297 481.744 271.429 L 657.916 267.417 C 678.609 266.776 698.746 264.131 720.549 263.823 L 1046.16 261.366 C 1082.16 261.365 1413.49 263.238 1423.69 269.731 C 1352.84 269.64 1279.73 266.988 1208.45 266.159 C 1092.8 264.922 977.147 264.922 861.5 266.16 C 708.653 267.847 555.832 271.331 403.067 276.612 C 351.639 278.29 299.786 281.329 248.445 282.747 C 247.364 328.635 244.148 374.219 242.097 420.09 C 238.797 494.036 236.333 568.017 234.706 642.018 C 228.904 889.519 229.236 1137.13 235.7 1384.61 C 233.966 1380.04 235.162 1366.28 233.539 1364.74 L 231.769 1366.3 C 228.349 1354.86 228.198 1321.54 229.967 1308.97 C 234.241 1278.58 230.582 1249.11 231.309 1218.45 C 231.534 1208.99 229.14 1198.42 229.064 1187.98 L 229.603 1189.91 L 229.576 1174.44 L 228.67 1181.83 C 226.926 1174.53 228.252 1164.49 228.987 1157 L 229.114 1169.03 C 230.532 1164.44 231.361 1142.46 230.008 1138.25 L 229.253 1138.73 C 228.994 1144.25 228.9 1148.54 227.857 1154.02 L 227.319 1153.91 C 226.965 1148.45 225.492 1130.28 227.577 1126.33 C 228.681 1128.33 228.321 1127.59 229.203 1129.51 L 229.778 1130.8 L 230.593 1129.95 C 230.545 1125.47 229.422 1098.88 228.777 1096.3 L 226.797 1096.52 L 225.761 1095.09 C 224.002 1077.66 226.103 1056.17 226.209 1038.48 L 226.431 961.003 C 226.504 942.166 225.584 925.887 228.563 906.951 C 229.712 899.647 225.286 882.333 226.538 873.274 C 226.977 870.097 225.853 859.961 225.903 855.583 L 229.691 636.466 C 229.972 623.644 230.571 611.803 231.672 599.018 C 232.177 592.627 229.506 583.059 230.172 576.955 C 233.531 546.182 232.173 515.243 234.812 484.342 C 235.366 477.863 237.347 466.218 237.288 460.616 C 236.945 428.5 238.999 397.151 239.834 365.129 C 240.135 353.213 242.79 341.246 243.268 329.528 C 243.951 312.804 244.125 296.386 245.147 279.715 z"/>
<path transform="translate(0,0)" fill="rgb(3,43,87)" d="M 1526.91 272.049 C 1532.22 271.492 1536.77 271.655 1542.07 271.819 C 1569.91 272.678 1597.72 271.339 1625.56 272.44 C 1640.24 273.02 1654.85 274.666 1669.5 275.251 L 1764.64 279.583 C 1772.56 279.894 1804.25 278.469 1805.68 282.793 C 1809.01 292.795 1808.39 339.268 1809.01 350.152 C 1822.72 605.691 1827.97 861.613 1824.75 1117.5 C 1824.3 1174.21 1825.26 1283.28 1823.44 1334.04 C 1821.88 1377.17 1810.34 1765.98 1805.35 1771.07 C 1794.58 1776.07 1784.16 1775.15 1772.7 1775.89 C 1675.17 1782.15 1577.46 1786.88 1479.72 1788.31 C 1467.89 1788.49 1454.41 1787.51 1442.48 1786.85 C 1449.11 1785.77 1474.69 1785.43 1482.5 1785.22 L 1566.52 1782.89 C 1646.23 1780.01 1723.87 1775.05 1803.24 1770.86 C 1804.57 1753.52 1804.58 1733.48 1805.37 1715.84 C 1807.16 1682.21 1808.74 1648.57 1810.13 1614.92 C 1814.49 1507.5 1817.57 1400.02 1819.38 1292.53 C 1819.64 1283.17 1819.84 1273.81 1819.99 1264.45 C 1820.08 1212.63 1821.66 1159.61 1821.95 1107.51 C 1822.68 976.896 1821.68 846.274 1818.96 715.683 C 1816.6 619.885 1813.44 524.108 1809.47 428.363 C 1807.41 379.493 1803.9 332.051 1802.87 282.995 C 1752.91 282.202 1698.74 278.202 1648.3 276.613 L 1569.24 274.041 C 1557.79 273.645 1537.69 273.505 1526.91 272.049 z"/>
<path transform="translate(0,0)" fill="rgb(0,59,143)" d="M 1819.99 1264.45 L 1821.19 1261.8 L 1822.47 1261.42 C 1824.25 1270.63 1823.28 1284.02 1819.38 1292.53 C 1819.64 1283.17 1819.84 1273.81 1819.99 1264.45 z"/>
<path transform="translate(0,0)" fill="rgb(3,43,87)" d="M 251.119 1774.04 C 258.564 1772.92 278.464 1774.38 286.948 1774.78 L 353.904 1777.93 C 426.906 1781.4 499.942 1784.11 573 1786.08 C 703.269 1789.41 833.57 1791.37 963.881 1791.97 L 1103.35 1791.84 C 1127.54 1791.68 1154.93 1790.61 1178.72 1791.24 C 1171.13 1798.38 829.033 1793.79 787.691 1793.5 L 649.999 1791.2 C 634.088 1790.87 618.119 1788.82 602.586 1788.66 C 563.557 1788.26 524.659 1788.34 485.621 1787.36 C 420.34 1785.49 355.106 1782.2 289.967 1777.5 C 282.093 1776.93 255.249 1777.73 251.119 1774.04 z"/>
<path transform="translate(0,0)" fill="rgb(4,9,21)" d="M 237.126 1446.76 C 239.299 1465.27 238.69 1492.78 239.696 1512.32 C 238.091 1510.17 237.427 1504.16 236.51 1500.7 L 236.389 1502.02 C 231.619 1487.6 235.048 1476.3 236.522 1461.95 C 236.896 1458.3 236.8 1451.3 237.126 1446.76 z"/>
<path transform="translate(0,0)" fill="rgb(3,5,6)" d="M 1159.11 596.945 L 1318.65 597.105 C 1318.57 608.846 1318.7 620.589 1319.04 632.326 C 1329.64 632.552 1340.24 632.439 1350.84 631.985 C 1350.48 644.639 1350.79 656.642 1351.08 669.289 C 1384.72 669.419 1423.72 670.778 1456.84 669.817 C 1456.75 682.312 1456.82 694.808 1457.06 707.302 L 1420.52 707.17 C 1420.36 720.347 1420.38 732.058 1420.9 745.218 L 1497.31 745.827 C 1497.03 757.906 1496.99 769.99 1497.2 782.07 C 1484.59 781.889 1470.61 781.954 1458.14 781.298 C 1458.06 793.74 1457.82 806.466 1458.2 818.883 C 1446.66 818.635 1432.6 818.016 1421.23 818.346 L 1422.03 1047.88 L 1386.36 1047.86 C 1385.7 1073.46 1386.13 1107.04 1386.85 1132.88 C 1375.72 1132.51 1363.76 1131.88 1352.69 1131.93 C 1352.5 1153.84 1351.9 1177.22 1352.79 1199 L 1319.46 1198.1 C 1319.56 1210.55 1319.52 1223.37 1319.95 1235.78 C 1308.3 1235.56 1296.71 1235.22 1285.06 1235.61 C 1285.04 1248.02 1285.12 1260.44 1285.29 1272.86 C 1273.95 1272.76 1262.43 1272.52 1251.11 1272.89 C 1251.06 1284.6 1251.13 1296.3 1251.34 1308 L 1217.12 1307.93 L 1217.22 1331.97 C 1206.28 1332.01 1194.17 1331.8 1183.32 1332.29 C 1183.31 1345.56 1183.23 1358.83 1183.05 1372.1 L 1114.9 1372.84 L 1114.62 1410.03 L 1027.24 1410.01 C 1027.31 1422 1027.16 1435.09 1027.61 1446.98 C 926.712 1447.18 823.369 1445.62 722.802 1446.84 C 722.39 1434.65 722.186 1422.44 722.189 1410.24 C 694.439 1409.74 666.685 1409.47 638.931 1409.42 L 638.872 1372.77 C 613.612 1371.27 581.005 1371.98 555.186 1371.86 L 555.014 1328.72 C 623.726 1328.98 697.559 1330.75 765.937 1329.34 C 765.904 1322.58 765.729 1315.32 765.853 1308.6 C 780.449 1308.66 796.469 1309.03 810.954 1308.59 L 811.058 1274.48 C 826.384 1274.7 841.713 1274.62 857.036 1274.23 L 857.066 1236.23 C 826.474 1235.92 795.88 1235.95 765.289 1236.3 C 765.342 1224.45 765.253 1212.59 765.023 1200.74 C 750.434 1200.32 735.84 1200.14 721.246 1200.19 L 720.896 1162.07 L 678.058 1162.09 C 677.88 1148.89 677.359 1134.19 677.599 1121.11 C 705.834 1121.08 736.379 1121.59 764.422 1120.66 C 764.6 1109.56 765.036 1097.58 764.494 1086.57 C 750.186 1086.43 735.002 1086.54 720.772 1086.1 C 720.765 1073.74 720.57 1061.38 720.186 1049.03 C 700.49 1048.89 673.545 1049.76 654.54 1048.84 C 648.527 1049.02 641.923 1048.88 635.859 1048.87 C 635.765 1034.92 635.841 1020.96 636.084 1007.01 C 622.216 1006.68 608.343 1006.57 594.471 1006.68 L 594.206 905.283 L 634.733 905.178 L 634.991 928.594 C 649.055 928.665 663.119 928.468 677.176 928.004 L 676.957 879.372 C 663.218 879.453 649.09 879.358 635.389 879.645 C 635.738 859.762 635.829 839.875 635.66 819.989 L 594.263 819.97 L 595.367 634.134 C 608.343 633.926 622.051 633.934 634.96 633.457 L 635.135 670.861 C 649.038 670.875 662.941 670.723 676.841 670.405 C 676.839 682.731 676.545 696.612 676.99 708.815 C 690.969 708.973 704.949 708.923 718.927 708.666 C 718.944 720.875 718.718 733.997 719.023 746.129 C 733.3 746.061 748.416 746.247 762.62 745.871 C 762.834 758.213 762.952 770.556 762.975 782.9 L 808.944 782.616 L 808.951 819.55 C 838.334 820.042 867.645 818.877 896.937 819.106 C 896.968 831.214 896.703 845.365 897.294 857.293 C 937.133 859.105 986.379 857.011 1027.23 857.244 L 1027.1 745.46 L 1061.07 745.044 C 1061.13 721.019 1060.46 692.623 1061.27 668.949 L 1126.16 668.805 L 1125.84 632.038 L 1159.24 632.002 C 1159.19 620.386 1159.01 608.538 1159.11 596.945 z"/>
<path transform="translate(0,0)" fill="rgb(3,43,87)" d="M 636.084 1007.01 C 641.907 1016.68 639.856 1035.69 640.248 1047.55 C 644.816 1047.81 650.134 1047.9 654.54 1048.84 C 648.527 1049.02 641.923 1048.88 635.859 1048.87 C 635.765 1034.92 635.841 1020.96 636.084 1007.01 z"/>
<path transform="translate(0,0)" fill="rgb(3,5,6)" d="M 1456.81 632.985 C 1469.49 632.794 1482.83 633.052 1495.56 633.1 L 1495.88 669.073 L 1457.09 668.956 L 1456.81 632.985 z"/>
<path transform="translate(0,0)" fill="rgb(3,5,6)" d="M 1497.82 708.979 L 1536.33 709.134 C 1535.94 721.325 1536.1 733.168 1536.22 745.357 C 1523.46 745.043 1510.7 744.98 1497.93 745.169 C 1498.11 733.106 1498.07 721.041 1497.82 708.979 z"/>
<path transform="translate(0,0)" fill="rgb(19,16,8)" d="M 156.844 354.157 C 153.69 339.898 160.044 306.823 158.049 291.924 C 156.849 282.956 150.104 267.228 147.307 258.05 C 146.058 253.951 143.355 250.341 142.846 245.687 C 142.475 243.863 141.417 234.772 140.611 233.892 C 119.171 210.46 97.181 187.159 74.6525 164.824 C 71.9638 164.747 71.525 164.958 69.0978 163.938 C 69.1943 161.164 69.522 160.758 71.7327 158.776 C 91.0701 141.442 119.659 147.118 143.371 146.598 L 271.498 144.947 C 284.233 144.899 295.454 143.935 308.382 144.454 C 305.335 145.463 296.609 145.001 292.65 145.355 C 270.14 147.365 232.769 143.777 211.003 147.385 L 211.773 148.58 L 215.647 148.818 L 216.889 151.164 C 214.785 154.591 212.424 151.137 208.125 154.669 C 208.659 158.357 209.897 159.486 210.904 163.005 C 212.08 167.116 213.041 175.567 214.461 179.242 C 217.675 187.556 222.348 196.671 226.28 204.677 C 231.825 215.832 237.1 227.12 242.098 238.53 C 243.63 239.087 259.49 238.565 264.573 239 C 233.968 245.992 187.481 231.767 168.763 264.123 C 154.74 288.364 161.047 326.301 156.844 354.157 z"/>
<path transform="translate(0,0)" fill="rgb(19,16,8)" d="M 1782.53 239.107 C 1792.6 234.011 1808.37 246.12 1812.47 232.692 C 1814.11 225.494 1830.18 214.881 1833.3 211.669 C 1837.08 207.778 1859.01 182.349 1859.59 179.381 C 1863 161.634 1869.6 167.081 1874.51 158.367 C 1874.5 155.313 1872.5 153.091 1870.74 150.402 L 1868.74 149.72 L 1867.14 150.52 L 1866.89 151.966 L 1865.85 151.99 L 1865.69 148.54 L 1864.86 149.051 L 1864.98 152.211 C 1862.96 151.663 1863.87 152.216 1862.41 150.292 C 1850.42 153.355 1855.86 154 1842.13 149.762 C 1841.55 147.132 1841.62 148.199 1842.39 145.423 L 1840.71 145.445 C 1837.85 148.8 1839.05 148.37 1835.41 149.419 L 1833.68 146.976 L 1834.27 145.26 C 1827.99 144.551 1816.28 145.741 1812.16 144.474 L 1813.03 143.566 C 1855.67 143.294 1898.24 143.595 1940.88 144.687 C 1943.29 144.749 1945.3 145.553 1947.26 146.928 C 1950.43 155.994 1915.73 179.561 1909.53 185.726 C 1897.36 197.805 1884.68 209.678 1872.69 221.853 C 1869.05 225.449 1862.9 244.403 1861.52 250.138 C 1864.6 254.517 1871.61 262.353 1871.54 266.851 C 1861.78 256.923 1860.89 246.422 1843.45 243.262 C 1823.76 239.695 1803.25 241.951 1783.56 239.257 L 1782.53 239.107 z"/>
<path transform="translate(0,0)" fill="rgb(19,16,8)" d="M 73.6128 1882.19 C 75.1944 1886.67 74.4359 1890.71 73.7693 1895.32 C 70.9756 1888.72 70.9748 1888.82 73.6128 1882.19 z"/>
</svg>